<svg width="446" height="451" viewBox="0 0 446 451" fill="none" xmlns="http://www.w3.org/2000/svg">
<path d="M393.654 164.728C391.075 156.338 387.704 148.212 383.588 140.459C362.362 101.012 325.139 71.2514 284.424 53.6447C252.098 39.6861 212.125 32.3898 177.828 44.9632C160.485 51.3231 144.156 63.4966 134.86 79.7378C122.745 100.944 123.886 127.174 114.268 149.462C106.465 167.498 87.073 178.335 71.8756 189.455C48.1626 206.74 24.8007 227.176 16.5777 256.41C5.61377 295.379 8.86199 341.771 31.0533 376.428C47.6358 402.287 76.0212 410.052 105.314 410.569C132.958 411.066 166.767 404.082 192.567 416.694C236.52 438.154 294.52 462.248 343.702 445.265C394.425 427.756 419.27 393.655 426.615 349.418C433.96 305.182 413.719 268.33 407.262 233.341C403.243 211.208 400.58 186.773 393.654 164.728Z" fill="#2091F9"/>
<path opacity="0.8" d="M393.654 164.728C391.075 156.338 387.704 148.212 383.588 140.459C362.362 101.012 325.139 71.2514 284.424 53.6447C252.098 39.6861 212.125 32.3898 177.828 44.9632C160.485 51.3231 144.156 63.4966 134.86 79.7378C122.745 100.944 123.886 127.174 114.268 149.462C106.465 167.498 87.073 178.335 71.8756 189.455C48.1626 206.74 24.8007 227.176 16.5777 256.41C5.61377 295.379 8.86199 341.771 31.0533 376.428C47.6358 402.287 76.0212 410.052 105.314 410.569C132.958 411.066 166.767 404.082 192.567 416.694C236.52 438.154 294.52 462.248 343.702 445.265C394.425 427.756 419.27 393.655 426.615 349.418C433.96 305.182 413.719 268.33 407.262 233.341C403.243 211.208 400.58 186.773 393.654 164.728Z" fill="white"/>
<path d="M23.8448 297.544C23.5911 294.725 23.5326 292.131 23.5034 289.828C23.5034 288.521 23.5034 287.341 23.5034 286.239C24.4788 285.41 28.5464 282.044 29.6682 279.772C30.7899 277.499 31.5508 274.407 30.3607 272.027C30.1045 271.459 29.7324 270.951 29.2683 270.536C28.8043 270.121 28.2585 269.807 27.6661 269.615C27.0736 269.423 26.4476 269.357 25.8282 269.421C25.2087 269.486 24.6096 269.679 24.0691 269.988C20.9184 271.939 20.6551 278.679 21.5037 281.927C21.572 282.21 23.2205 286.463 23.2693 286.424L23.3375 286.375C23.2888 287.439 23.24 288.58 23.2205 289.819C23.2205 292.121 23.2205 294.696 23.3961 297.564C23.3961 298.032 23.4643 298.539 23.5034 299.017C23.8545 299.544 24.0496 299.885 24.0496 299.885C24.0106 299.095 23.913 298.295 23.8448 297.544Z" fill="#BABABA"/>
<path d="M13.7102 290.394C9.47682 291.087 8.93057 295.057 12.8811 297.593C16.2269 299.739 21.943 299.885 23.611 299.885C23.611 299.593 23.611 299.3 23.5427 299.017C21.943 296.569 17.1828 289.819 13.7102 290.394Z" fill="#BABABA"/>
<path d="M97.9411 271.763C94.2051 271.646 90.2643 277.05 89.1621 280.191C89.0645 280.464 88.1086 284.893 88.1866 284.883H88.2647C87.6306 285.732 86.9673 286.648 86.3138 287.673C85.0262 289.565 83.5923 291.711 82.1974 294.15L81.7097 294.998C81.6414 295.681 81.5829 296.091 81.5829 296.091L81.2512 295.818C80.073 297.911 79.0019 300.063 78.042 302.265C76.6565 305.379 75.5531 308.611 74.745 311.922C74.745 311.922 74.745 312 74.745 312.039C74.667 310.947 74.3354 307.894 74.2866 307.669C73.555 304.392 70.2385 298.471 66.483 298.071C65.867 298.019 65.2471 298.099 64.6644 298.306C64.0818 298.512 63.5498 298.84 63.104 299.269C62.6582 299.697 62.3088 300.215 62.0791 300.789C61.8493 301.363 61.7445 301.979 61.7717 302.597C61.7717 305.24 63.9371 307.728 65.9368 309.24C68.1998 310.956 74.1598 312.332 74.628 312.439C73.8944 315.839 73.3861 319.283 73.1063 322.75C72.9307 324.769 72.8234 326.807 72.7356 328.866C72.6283 327.89 72.5405 327.071 72.5113 326.915C71.7797 323.647 68.4632 317.726 64.7077 317.326C64.0922 317.274 63.4726 317.354 62.8904 317.561C62.3082 317.767 61.7768 318.096 61.3318 318.524C60.8867 318.953 60.5382 319.471 60.3096 320.045C60.081 320.619 59.9775 321.235 60.0061 321.852C60.0061 324.496 62.1716 326.973 64.1712 328.495C66.1709 330.017 71.2627 331.314 72.6088 331.626C72.6088 332.416 72.5503 333.197 72.5308 333.987C72.4235 337.762 72.3259 341.527 72.1309 345.224C72.0626 346.521 71.9455 347.799 71.8285 349.077C71.7407 348.238 71.6626 347.536 71.6334 347.428C70.9116 344.161 67.5853 338.24 63.8298 337.84C63.2139 337.786 62.5937 337.865 62.0107 338.071C61.4278 338.277 60.8958 338.605 60.4504 339.034C60.005 339.463 59.6565 339.982 59.4285 340.557C59.2004 341.131 59.098 341.748 59.1282 342.366C59.1282 345.009 61.2839 347.487 63.2836 349.008C65.2833 350.53 69.8873 351.691 71.4773 352.081C71.37 352.979 71.2627 353.876 71.1359 354.754C71.7017 354.92 72.2772 355.056 72.8722 355.173C73.0868 353.476 73.2526 351.749 73.3892 350.003C74.7743 350.394 79.7296 351.71 82.1682 351.35C84.6068 350.989 87.6501 349.847 88.889 347.526C89.1946 346.984 89.3841 346.385 89.4453 345.766C89.5065 345.147 89.4382 344.522 89.2445 343.931C89.0509 343.34 88.7362 342.796 88.3207 342.333C87.9051 341.871 87.3977 341.5 86.8308 341.244C83.3582 339.781 77.7201 343.38 75.5742 345.907C75.4474 346.063 74.111 348.053 73.3989 349.155C73.4867 347.877 73.5745 346.609 73.6135 345.321C73.7403 341.585 73.7501 337.801 73.7696 334.035C73.7696 332.875 73.7696 331.724 73.7696 330.573C74.2671 330.719 80.1197 332.406 82.89 331.997C85.3579 331.636 88.372 330.495 89.6108 328.183C89.9177 327.641 90.1079 327.041 90.1692 326.421C90.2305 325.801 90.1616 325.176 89.9669 324.584C89.7722 323.993 89.456 323.448 89.0385 322.986C88.621 322.524 88.1116 322.155 87.5428 321.901C84.08 320.438 78.442 324.027 76.296 326.554C76.1399 326.749 74.2281 329.607 73.7794 330.358C73.7794 327.822 73.8769 325.295 74.033 322.808C74.2338 319.449 74.6509 316.106 75.2815 312.8C75.5156 312.868 81.6219 314.653 84.4507 314.244C86.9186 313.883 89.9424 312.732 91.1715 310.42C91.4772 309.878 91.6666 309.279 91.7279 308.66C91.7891 308.041 91.7207 307.416 91.5271 306.825C91.3334 306.234 91.0188 305.69 90.6032 305.228C90.1876 304.765 89.6802 304.394 89.1133 304.138C85.6505 302.675 80.0027 306.274 77.8567 308.801C77.6909 308.996 75.6425 312.078 75.301 312.703C75.301 312.507 75.3596 312.303 75.3986 312.117C76.1265 308.83 77.1483 305.614 78.4517 302.509C79.1443 300.783 79.9051 299.183 80.6855 297.632C81.7877 298.081 86.86 300.08 89.4645 299.993C92.0689 299.905 95.0928 299.105 96.5754 296.939C96.9406 296.436 97.1962 295.861 97.3256 295.253C97.455 294.645 97.4553 294.016 97.3266 293.407C97.198 292.799 96.9431 292.224 96.5784 291.72C96.2138 291.216 95.7476 290.794 95.2098 290.482C91.9226 288.648 85.9041 291.594 83.5045 293.867C83.3777 293.984 82.1877 295.398 81.3293 296.432C81.6902 295.74 82.0511 295.018 82.412 294.364C83.7581 291.896 85.1433 289.721 86.3821 287.809C87.0941 286.726 87.7672 285.761 88.4012 284.883C89.6986 284.766 94.9562 284.21 97.1802 282.932C99.4042 281.654 101.716 279.547 102.057 276.933C102.15 276.32 102.116 275.694 101.956 275.094C101.796 274.495 101.514 273.935 101.127 273.45C100.741 272.965 100.259 272.564 99.7102 272.274C99.1619 271.984 98.5597 271.81 97.9411 271.763Z" fill="#BABABA"/>
<path d="M46.6606 352.296C46.9142 352.793 47.1581 353.271 47.402 353.798L49.07 353.252C48.4359 351.993 47.7824 350.735 47.1191 349.496C48.4749 349.057 53.2936 347.428 55.1275 345.76C56.9613 344.092 58.8244 341.459 58.5708 338.835C58.529 338.212 58.3589 337.605 58.071 337.052C57.7831 336.499 57.3837 336.011 56.898 335.62C56.4123 335.229 55.8508 334.942 55.249 334.779C54.6471 334.615 54.0179 334.578 53.4009 334.67C49.7333 335.352 47.0605 341.498 46.6899 344.804C46.6899 345.019 46.6899 347.428 46.6899 348.706C46.0461 347.594 45.4218 346.472 44.739 345.36C42.7881 342.141 40.7007 338.952 38.6327 335.762L36.7599 332.836C37.2476 332.689 43.0125 330.885 45.0706 329.002C46.9045 327.344 48.7676 324.71 48.514 322.086C48.4737 321.463 48.3044 320.856 48.017 320.302C47.7295 319.748 47.3302 319.259 46.8441 318.868C46.3581 318.476 45.796 318.19 45.1935 318.027C44.591 317.864 43.9613 317.828 43.3441 317.921C39.6764 318.604 37.0037 324.749 36.6331 328.056C36.6331 328.31 36.6331 331.772 36.6331 332.66C35.2577 330.495 33.9116 328.329 32.6728 326.144C30.9863 323.202 29.4876 320.155 28.1857 317.024C28.4101 316.955 34.4383 315.073 36.5453 313.171C38.3791 311.513 40.2422 308.879 39.9886 306.245C39.947 305.623 39.7768 305.017 39.4888 304.464C39.2008 303.911 38.8013 303.424 38.3154 303.033C37.8295 302.643 37.2679 302.357 36.666 302.195C36.0641 302.032 35.4351 301.997 34.8187 302.09C31.1511 302.773 28.4784 308.918 28.1077 312.225C28.1077 312.488 28.1077 316.214 28.1077 316.897C28.0394 316.712 27.9419 316.526 27.8736 316.351C26.6615 313.187 25.728 309.923 25.0838 306.596C24.7034 304.762 24.4498 302.987 24.2352 301.251C25.396 301.027 30.6829 299.905 32.7801 298.403C34.8773 296.9 36.9257 294.501 36.9647 291.906C36.9908 291.283 36.8874 290.66 36.661 290.079C36.4346 289.497 36.09 288.969 35.6492 288.527C35.2083 288.085 34.6807 287.74 34.0996 287.512C33.5185 287.284 32.8965 287.18 32.2728 287.204C28.5467 287.478 25.2106 293.282 24.4693 296.53C24.4693 296.705 24.2157 298.549 24.0791 299.895H23.6012C23.7865 302.06 24.0499 304.343 24.4791 306.723C25.0482 310.117 25.9198 313.453 27.0835 316.692C27.0938 316.73 27.1102 316.767 27.1323 316.799C26.4592 315.922 24.5083 313.532 24.3425 313.366C21.9332 311.015 15.9342 307.855 12.6372 309.571C12.0981 309.876 11.6297 310.292 11.2626 310.79C10.8955 311.289 10.6381 311.86 10.5073 312.465C10.3764 313.07 10.3752 313.696 10.5035 314.302C10.6319 314.908 10.887 315.48 11.2521 315.98C12.7347 318.194 15.8659 319.111 18.3533 319.277C21.1626 319.482 26.8396 317.326 27.2883 317.18C28.5511 320.451 30.0306 323.635 31.7168 326.71C32.6923 328.514 33.7165 330.3 34.7797 332.075C34.175 331.334 33.6287 330.67 33.5409 330.592C31.1413 328.232 25.1326 325.071 21.8356 326.788C21.2951 327.093 20.8253 327.508 20.4573 328.008C20.0892 328.507 19.8312 329.079 19.7003 329.686C19.5695 330.292 19.5686 330.92 19.6979 331.527C19.8272 332.133 20.0837 332.706 20.4505 333.206C21.9234 335.421 25.0643 336.328 27.5517 336.503C30.0391 336.679 34.9553 334.943 36.2526 334.455C36.6721 335.128 37.072 335.811 37.4915 336.484C39.4423 339.722 41.4908 342.951 43.3441 346.17C43.9977 347.311 44.6122 348.453 45.217 349.594C44.6805 348.93 44.2415 348.384 44.1537 348.306C41.7444 345.955 35.7357 342.795 32.4484 344.512C31.9086 344.816 31.4392 345.23 31.0712 345.729C30.7031 346.227 30.4447 346.798 30.3129 347.403C30.1812 348.008 30.1791 348.635 30.3067 349.241C30.4344 349.847 30.6889 350.42 31.0535 350.92C32.5265 353.135 35.6674 354.052 38.1548 354.227C40.6421 354.403 45.1097 352.842 46.6606 352.296Z" fill="#BABABA"/>
<path d="M79.4929 282.161C75.7765 280.025 72.8404 282.766 74.3035 287.224C75.5521 291.038 79.9709 294.813 81.2194 295.808L81.6779 294.989C81.99 292.023 82.5265 283.898 79.4929 282.161Z" fill="#BABABA"/>
<path d="M304.48 436.935C300.364 437.042 296.374 443.275 295.389 446.826C295.34 447.011 295.018 448.952 294.804 450.425C296.755 450.601 298.705 450.737 300.656 450.835C301.989 450.515 303.269 450.009 304.461 449.333C306.753 447.84 309.24 445.294 309.416 442.378C309.482 441.689 309.404 440.994 309.187 440.338C308.969 439.681 308.617 439.077 308.152 438.565C307.687 438.052 307.12 437.642 306.488 437.362C305.856 437.081 305.172 436.936 304.48 436.935Z" fill="#BABABA"/>
<path d="M268.954 381.764C264.213 381.764 262.926 386.017 266.798 389.47C270.066 392.396 276.279 393.557 278.094 393.85L278.181 392.874C276.865 389.899 272.846 381.705 268.954 381.764Z" fill="#BABABA"/>
<path d="M345.293 436.233C345.722 435.695 346.034 435.074 346.21 434.408C346.385 433.743 346.419 433.049 346.311 432.369C346.203 431.69 345.954 431.041 345.58 430.463C345.207 429.885 344.717 429.392 344.142 429.014C340.621 426.82 333.832 429.756 331.061 432.136C330.847 432.311 328.272 435.111 327.647 435.852C328.125 433.082 328.623 430.341 329.247 427.649C330.045 424.008 331.081 420.424 332.349 416.919C332.593 417.036 338.933 420.05 342.103 420.099C344.854 420.099 348.346 419.406 350.092 417.104C350.521 416.566 350.833 415.945 351.009 415.28C351.184 414.615 351.219 413.92 351.11 413.241C351.002 412.562 350.753 411.912 350.38 411.335C350.006 410.757 349.516 410.264 348.941 409.886C345.42 407.691 338.631 410.627 335.861 413.007C335.636 413.193 332.866 416.197 332.398 416.782C332.476 416.577 332.525 416.363 332.603 416.158C333.971 412.699 335.646 409.369 337.607 406.208C338.66 404.453 339.772 402.833 340.894 401.331C342.016 402.014 347.205 405.077 350.053 405.428C352.902 405.779 356.345 405.428 358.335 403.341C358.82 402.854 359.198 402.272 359.445 401.631C359.692 400.989 359.802 400.304 359.768 399.617C359.734 398.931 359.557 398.26 359.248 397.646C358.939 397.032 358.505 396.49 357.974 396.054C354.706 393.479 347.634 395.654 344.61 397.703C344.444 397.82 342.903 399.146 341.791 400.122C342.298 399.429 342.825 398.707 343.323 398.054C345.225 395.596 347.107 393.469 348.795 391.596C349.77 390.543 350.658 389.645 351.507 388.738C352.95 388.836 358.783 389.148 361.407 388.163C364.031 387.178 366.948 385.236 367.738 382.456C367.945 381.799 368.014 381.106 367.939 380.422C367.864 379.737 367.648 379.075 367.304 378.478C366.96 377.881 366.496 377.362 365.941 376.954C365.386 376.545 364.752 376.257 364.08 376.106C360.032 375.316 354.794 380.535 353.067 383.773C352.921 384.056 351.116 388.709 351.175 388.719H351.263C350.434 389.528 349.546 390.416 348.6 391.401C346.873 393.245 344.932 395.303 342.972 397.761L342.298 398.6C342.103 399.332 341.977 399.761 341.977 399.761C341.977 399.761 341.85 399.634 341.655 399.41C340.104 401.361 338.524 403.526 337.031 405.877C334.977 409.035 333.211 412.371 331.754 415.846C331.754 415.846 331.754 415.934 331.754 415.973C331.861 414.763 332.037 411.378 332.017 411.095C331.803 407.399 329.208 400.366 325.189 399.273C324.526 399.111 323.836 399.092 323.165 399.217C322.494 399.342 321.857 399.608 321.297 399.999C320.737 400.389 320.266 400.894 319.916 401.481C319.567 402.067 319.346 402.721 319.268 403.399C318.839 406.326 320.731 409.359 322.653 411.369C324.819 413.632 331.081 416.168 331.578 416.373C330.178 419.952 329.021 423.621 328.116 427.356C327.579 429.522 327.14 431.736 326.643 433.95C326.701 432.906 326.74 431.999 326.73 431.843C326.506 428.146 323.921 421.113 319.902 420.021C319.24 419.855 318.549 419.833 317.878 419.956C317.206 420.08 316.568 420.345 316.007 420.735C315.447 421.125 314.976 421.63 314.626 422.217C314.277 422.804 314.057 423.458 313.981 424.137C313.552 427.063 315.445 430.107 317.366 432.116C319.288 434.126 324.614 436.418 326.018 436.993L325.521 439.549C324.858 443.051 324.204 446.543 323.482 449.986L325.238 449.742C325.843 446.455 326.399 443.139 326.945 439.822C327.15 438.564 327.374 437.315 327.599 436.057C328.106 436.301 334.202 439.159 337.294 439.208C340.055 439.256 343.547 438.535 345.293 436.233Z" fill="#BABABA"/>
<path d="M342.152 384.212C338.465 381.237 334.797 383.715 335.607 388.826C336.309 393.216 340.484 398.093 341.654 399.4L342.298 398.59C343.195 395.42 345.146 386.641 342.152 384.212Z" fill="#BABABA"/>
<path d="M278.817 391.284C279.031 388.172 279.421 385.324 279.792 382.817C280.007 381.393 280.231 380.106 280.455 378.915C281.704 378.194 286.689 375.219 288.308 372.936C289.927 370.654 291.293 367.415 290.415 364.616C290.233 363.952 289.916 363.334 289.482 362.801C289.048 362.267 288.508 361.83 287.896 361.517C287.283 361.204 286.613 361.022 285.926 360.983C285.24 360.943 284.552 361.048 283.909 361.289C280.124 362.879 278.67 370.176 279.031 373.863C279.031 374.185 280.114 379.111 280.182 379.081L280.26 379.033C280.017 380.184 279.773 381.422 279.539 382.778C279.109 385.285 278.661 388.124 278.378 391.255C278.329 391.772 278.28 392.318 278.241 392.855C278.524 393.498 278.69 393.898 278.69 393.898C278.67 393.02 278.709 392.123 278.817 391.284Z" fill="#BABABA"/>
<path d="M279.986 444.026C279.166 444.302 278.442 444.805 277.898 445.477C277.354 446.149 277.012 446.962 276.913 447.821C281.956 448.796 286.999 449.606 292.032 450.142C289.789 447.118 283.849 442.739 279.986 444.026Z" fill="#BABABA"/>
<path d="M315.414 442.241C314.751 442.076 314.061 442.054 313.389 442.177C312.718 442.3 312.08 442.566 311.519 442.955C310.958 443.345 310.488 443.851 310.138 444.437C309.789 445.024 309.569 445.679 309.493 446.358C309.329 447.96 309.671 449.573 310.469 450.972C314.156 450.893 317.817 450.65 321.452 450.24C320.369 446.806 318.253 443.031 315.414 442.241Z" fill="#BABABA"/>
<path d="M293.166 447.119C291.595 443.275 289.879 439.422 288.191 435.579C287.674 434.409 287.167 433.228 286.66 432.048C287.216 431.97 293.819 431.004 296.414 429.317C298.706 427.824 301.194 425.278 301.369 422.362C301.434 421.679 301.357 420.99 301.142 420.338C300.927 419.687 300.579 419.087 300.121 418.577C299.663 418.066 299.104 417.656 298.479 417.372C297.855 417.089 297.178 416.938 296.492 416.929C292.376 417.026 288.386 423.269 287.401 426.81C287.323 427.083 286.718 430.868 286.621 431.833C285.499 429.239 284.406 426.644 283.441 424.03C282.108 420.528 281.004 416.944 280.134 413.3C280.388 413.3 287.284 412.325 289.888 410.569C292.171 409.076 294.668 406.521 294.844 403.614C294.908 402.93 294.831 402.241 294.616 401.589C294.401 400.937 294.054 400.336 293.596 399.825C293.138 399.314 292.579 398.903 291.954 398.618C291.33 398.334 290.653 398.181 289.966 398.171C285.85 398.278 281.86 404.511 280.875 408.062C280.797 408.335 280.153 412.412 280.095 413.154C280.046 412.949 279.968 412.734 279.919 412.52C279.151 408.846 278.707 405.112 278.593 401.361C278.495 399.293 278.524 397.312 278.593 395.391C279.89 395.342 285.85 395.04 288.406 393.762C290.961 392.484 293.605 390.28 294.093 387.412C294.231 386.737 294.228 386.04 294.083 385.367C293.938 384.693 293.655 384.057 293.252 383.499C292.848 382.94 292.333 382.471 291.739 382.123C291.145 381.774 290.485 381.552 289.801 381.471C285.694 381.11 281.022 386.865 279.666 390.25C279.597 390.436 279.051 392.416 278.69 393.859L278.154 393.781C277.978 396.171 277.871 398.659 277.929 401.351C277.962 405.151 278.331 408.941 279.032 412.676V412.802C278.456 411.729 276.739 408.784 276.583 408.569C274.369 405.584 268.37 401.087 264.478 402.385C263.839 402.627 263.257 403.001 262.772 403.483C262.287 403.965 261.908 404.543 261.661 405.18C261.413 405.818 261.303 406.5 261.336 407.183C261.369 407.866 261.546 408.534 261.854 409.145C263.073 411.808 266.341 413.358 269.024 414.022C272.048 414.724 278.612 413.388 279.139 413.28C279.947 417.069 281.003 420.8 282.299 424.449C283.051 426.585 283.87 428.712 284.709 430.829C284.182 429.921 283.733 429.102 283.626 429.005C281.412 426.01 275.413 421.523 271.521 422.82C270.883 423.063 270.303 423.437 269.818 423.918C269.334 424.398 268.956 424.976 268.708 425.612C268.461 426.248 268.35 426.929 268.382 427.611C268.415 428.293 268.59 428.96 268.897 429.57C270.116 432.243 273.374 433.784 276.066 434.448C278.759 435.111 284.406 434.057 285.889 433.765C286.221 434.574 286.543 435.384 286.865 436.194C288.474 440.095 290.103 443.948 291.576 447.792C291.888 448.611 292.181 449.43 292.473 450.24L294.424 450.435C294.024 449.304 293.615 448.211 293.166 447.119Z" fill="#BABABA"/>
<path d="M300.52 114.619C301.346 115.076 302.107 115.64 302.783 116.297M290.658 140.459L291.302 144.312L295.594 144.692L296.882 141.044C298.289 140.918 299.675 140.616 301.008 140.147L303.72 142.897L307.446 140.742L306.422 137.035C307.5 136.117 308.46 135.069 309.28 133.914L313.064 134.616L314.888 130.714L311.913 128.266C312.266 126.896 312.446 125.486 312.45 124.071L315.981 122.472L315.23 118.229L311.328 117.926C310.833 116.621 310.178 115.383 309.377 114.239L311.387 110.844L308.343 107.801L304.929 109.83C302.961 108.501 300.739 107.595 298.403 107.167L297.428 103.265H293.117L292.141 107.167C290.795 107.416 289.485 107.829 288.239 108.396L285.167 105.733L281.636 108.201L283.089 112.005C282.14 112.972 281.312 114.049 280.621 115.214L276.563 114.795L275.09 118.843L278.446 121.116C278.288 122.06 278.21 123.016 278.212 123.974C278.212 124.384 278.212 124.784 278.212 125.183L274.69 127.134L275.802 131.29L279.792 131.241C280.385 132.483 281.122 133.652 281.987 134.723L280.26 138.313L283.557 141.073L286.815 138.879L290.658 140.459ZM304.705 118.765C305.859 120.819 306.306 123.196 305.975 125.529C305.644 127.862 304.555 130.021 302.875 131.673C301.195 133.325 299.017 134.378 296.679 134.67C294.341 134.962 291.972 134.476 289.938 133.287C287.903 132.098 286.317 130.272 285.423 128.092C284.529 125.912 284.378 123.498 284.993 121.224C285.608 118.949 286.954 116.94 288.824 115.506C290.694 114.073 292.984 113.295 295.341 113.293C295.857 113.292 296.372 113.331 296.882 113.41L304.705 118.765Z" stroke="black" stroke-miterlimit="10"/>
<path d="M310.722 334.289C311.548 334.745 312.309 335.31 312.985 335.967M300.822 360.167L301.465 364.02L305.757 364.401L307.045 360.753C308.452 360.626 309.838 360.325 311.171 359.855L313.883 362.606L317.609 360.45L316.633 356.744C317.712 355.826 318.672 354.777 319.492 353.622L323.276 354.325L325.1 350.423L322.174 347.974C322.527 346.604 322.707 345.195 322.71 343.78L326.242 342.18L325.491 337.937L321.589 337.635C321.097 336.328 320.442 335.089 319.638 333.948L321.647 330.553L318.604 327.51L315.19 329.539C313.222 328.21 311 327.303 308.664 326.876L307.689 322.974H303.377L302.402 326.876C301.056 327.124 299.746 327.537 298.5 328.105L295.398 325.471L291.867 327.939L293.32 331.743C292.372 332.71 291.543 333.787 290.853 334.952L286.795 334.533L285.322 338.581L288.677 340.854C288.52 341.798 288.442 342.754 288.443 343.712C288.443 344.121 288.443 344.521 288.443 344.921L284.922 346.872L286.034 351.028L290.023 350.979C290.616 352.221 291.353 353.39 292.218 354.461L290.521 358.07L293.818 360.831L297.017 358.548L300.822 360.167ZM314.907 338.435C316.062 340.489 316.508 342.866 316.177 345.198C315.846 347.531 314.757 349.691 313.077 351.343C311.397 352.995 309.22 354.048 306.881 354.34C304.543 354.631 302.174 354.145 300.14 352.956C298.105 351.767 296.519 349.942 295.625 347.762C294.732 345.582 294.58 343.168 295.195 340.893C295.81 338.618 297.156 336.609 299.026 335.176C300.896 333.743 303.186 332.965 305.543 332.962C306.059 332.961 306.574 333.001 307.084 333.079L314.907 338.435Z" stroke="black" stroke-miterlimit="10"/>
<path d="M343.566 113.459C342.18 115.637 340.055 117.242 337.581 117.98C335.107 118.718 332.45 118.539 330.097 117.476C327.744 116.413 325.853 114.537 324.772 112.193C323.69 109.849 323.49 107.193 324.208 104.713C324.926 102.233 326.514 100.095 328.681 98.6918C330.848 97.2882 333.448 96.713 336.005 97.0717C338.562 97.4304 340.904 98.699 342.601 100.645C344.298 102.59 345.236 105.083 345.244 107.664C345.244 107.925 345.244 108.188 345.244 108.455M321.736 94.2424L322.302 95.7251C322.019 96.0079 321.746 96.3103 321.482 96.6127L321.736 94.2424ZM320.049 98.5636C319.971 98.6806 319.902 98.7977 319.834 98.9147L315.776 98.5051L314.303 102.543L317.659 104.816C317.498 105.76 317.417 106.716 317.415 107.674C317.415 108.084 317.415 108.484 317.415 108.884L313.884 110.835L315.006 114.99H318.995C319.582 116.239 320.319 117.412 321.19 118.482L319.463 122.062L322.76 124.832L325.96 122.54C327.17 123.237 328.46 123.784 329.803 124.169L330.447 128.022L334.729 128.393L336.026 124.744C337.433 124.621 338.819 124.323 340.152 123.857L342.854 126.598L346.581 124.452L345.605 120.745C346.682 119.825 347.641 118.777 348.463 117.624L352.248 118.316L354.072 114.415L351.097 111.956C351.445 110.588 351.625 109.183 351.633 107.772L355.164 106.162L354.413 101.929L350.512 101.626C350.014 100.319 349.359 99.0777 348.561 97.9295L350.57 94.5448L347.527 91.5014L344.113 93.5303C342.149 92.1935 339.925 91.2861 337.587 90.8673L336.612 86.9656H332.31L331.334 90.8673C329.99 91.1208 328.68 91.5334 327.433 92.0964L324.35 89.4334L320.829 91.9013L321.278 93.0718L320.049 98.5636ZM345.03 109.888C344.884 110.595 344.665 111.285 344.376 111.947L345.03 109.888Z" stroke="black" stroke-miterlimit="10"/>
<path d="M90.0974 186.783C95.0113 187.009 99.6708 189.033 103.19 192.47C106.71 195.907 108.845 200.517 109.188 205.424C109.532 210.331 108.061 215.193 105.055 219.087C102.049 222.981 97.7175 225.635 92.8831 226.545C88.0487 227.455 83.0486 226.557 78.8329 224.022C74.6171 221.487 71.4794 217.491 70.0161 212.795C68.5527 208.098 68.8657 203.028 70.8954 198.547C72.9252 194.066 76.5303 190.487 81.0258 188.49M64.4432 226.951L61.2145 233.653L67.3793 238.822L73.349 234.54C75.6132 235.849 78.0313 236.871 80.5478 237.584L81.7378 244.782L89.756 245.485L92.1653 238.657C94.7972 238.422 97.3893 237.858 99.881 236.979L104.934 242.119L111.899 238.101L109.948 231.175C111.966 229.451 113.765 227.486 115.303 225.322L122.375 226.62L125.779 219.333L120.229 214.748C120.876 212.198 121.203 209.576 121.204 206.945L127.798 203.941L126.403 196.02L119.127 195.454C118.196 193.017 116.975 190.701 115.488 188.558L119.234 182.217L113.547 176.531L107.158 180.325C103.488 177.829 99.3335 176.134 94.9648 175.35L93.1212 168.054H85.0738L83.2205 175.389C80.7281 175.866 78.3016 176.639 75.9925 177.691L70.2374 172.717L63.6531 177.331L66.3649 184.442C64.5958 186.249 63.0471 188.259 61.751 190.431L54.1718 189.65L51.4211 197.21L57.6932 201.463C57.3951 203.229 57.2451 205.017 57.2445 206.808C57.2445 207.569 57.2737 208.32 57.3323 209.062L50.7285 212.749L52.816 220.552L60.2781 220.465C61.103 222.222 62.0823 223.903 63.2044 225.488L64.4432 226.951ZM82.4597 187.914C83.336 187.607 84.2322 187.359 85.1421 187.173L82.4597 187.914Z" stroke="black" stroke-miterlimit="10"/>
<path d="M167.499 205.297L159.52 200.146" stroke="#263238" stroke-width="3" stroke-linecap="round" stroke-linejoin="round"/>
<path d="M181.361 189.807L179.293 188.08" stroke="#263238" stroke-width="3" stroke-linecap="round" stroke-linejoin="round"/>
<path d="M158.067 235.223L141.553 231.087" stroke="#263238" stroke-width="3" stroke-linecap="round" stroke-linejoin="round"/>
<path d="M247.32 336.728C247.198 336.726 247.077 336.71 246.959 336.679C246.578 336.58 246.252 336.334 246.052 335.996C245.544 335.108 245.271 334.63 249.388 329.909C240.511 335.343 239.565 335.118 239.048 334.991C238.643 334.872 238.296 334.608 238.073 334.25C237.253 332.836 237.097 332.553 253.524 319.111C250.89 320.818 248.149 322.652 245.72 324.271C231.264 333.918 226.767 336.659 224.777 336.201C224.536 336.146 224.309 336.042 224.109 335.897C223.91 335.751 223.742 335.565 223.616 335.352C222.739 333.831 222.739 333.831 242.15 319.804L245.993 317.033C243.75 318.526 241.516 320.048 239.467 321.442C224.192 331.831 217.237 336.318 214.633 335.733C214.361 335.671 214.105 335.553 213.883 335.384C213.661 335.216 213.478 335.002 213.345 334.757C212.37 333.109 212.175 332.738 240.404 313.561L203.278 335.021C202.948 335.205 202.558 335.252 202.193 335.151C201.828 335.051 201.518 334.811 201.328 334.484C200.674 333.353 201.181 331.967 203.864 329.607C199.591 332.065 197.114 333.05 195.894 332.767C195.641 332.709 195.401 332.6 195.19 332.448C194.979 332.295 194.801 332.102 194.665 331.88C193.856 330.475 194.168 329.178 204.498 322.233C193.846 328.895 189.915 330.855 188.383 330.495C188.156 330.441 187.942 330.342 187.754 330.203C187.566 330.063 187.408 329.887 187.291 329.685C186.579 328.466 187.242 328.027 189.691 326.407L195.085 322.886L203.337 317.55C194.246 322.272 192.88 321.95 192.119 321.764C191.863 321.706 191.621 321.596 191.408 321.442C191.196 321.288 191.016 321.092 190.881 320.867C190.701 320.536 190.655 320.149 190.753 319.786C190.851 319.423 191.086 319.111 191.407 318.916C220.037 301.943 264.234 274.719 274.886 265.715C264.263 270.544 232.503 290.267 214.408 301.534C191.105 316.019 190.998 315.99 190.022 315.736C189.821 315.691 189.63 315.605 189.463 315.485C189.295 315.364 189.154 315.211 189.047 315.034C188.257 313.668 188.296 312.79 197.621 307.016C193.329 309.035 190.5 309.942 189.252 309.649C188.978 309.586 188.721 309.466 188.496 309.298C188.271 309.13 188.084 308.918 187.945 308.674C187.758 308.35 187.703 307.966 187.792 307.603C187.881 307.239 188.107 306.924 188.422 306.723C217.315 288.316 257.962 262.253 274.544 251.24C269.93 253.591 263.736 257.093 256.85 261.219C251.28 264.799 244.676 268.964 236.863 273.821C226.543 280.25 216.106 286.619 207.414 291.887C186.423 305.133 186.169 305.075 185.145 304.821C184.943 304.772 184.754 304.685 184.586 304.562C184.419 304.44 184.277 304.286 184.17 304.109C183.99 303.778 183.944 303.391 184.042 303.028C184.14 302.665 184.374 302.353 184.696 302.158C191.017 298.403 197.992 294.218 205.229 289.828L209.034 287.429C193.875 296.1 185.496 299.895 183.028 299.29C182.743 299.235 182.473 299.119 182.236 298.951C181.998 298.782 181.8 298.566 181.653 298.315C180.746 296.754 182.033 294.764 192.724 287.78C185.828 291.984 183.097 293.233 181.936 292.95C181.714 292.9 181.506 292.805 181.323 292.671C181.14 292.536 180.987 292.366 180.873 292.169C180.258 291.106 179.761 290.219 186.901 285.039C183.058 286.99 180.629 287.78 179.468 287.497C179.205 287.44 178.956 287.329 178.738 287.171C178.52 287.014 178.336 286.812 178.2 286.58C178.102 286.412 178.038 286.227 178.013 286.034C177.988 285.841 178.002 285.646 178.054 285.458C178.156 285.085 178.401 284.766 178.736 284.571C210.389 266.574 258.323 238.071 272.915 226.571C256.908 235.408 212.779 261.316 181.985 279.576C181.818 279.675 181.634 279.739 181.443 279.765C181.252 279.792 181.057 279.781 180.87 279.732C180.683 279.683 180.508 279.597 180.355 279.48C180.201 279.363 180.072 279.217 179.975 279.05C179.826 278.782 179.732 278.486 179.7 278.181C179.668 277.876 179.699 277.567 179.79 277.274C180.333 276.038 181.154 274.943 182.189 274.075C179.917 275.002 178.395 275.343 177.527 275.128C177.257 275.063 177.003 274.942 176.782 274.774C176.56 274.607 176.376 274.395 176.239 274.153C175.361 272.641 177.039 271.471 179.575 269.705C181.526 268.388 184.287 266.564 188.149 264.145C195.358 259.638 205.249 253.669 215.725 247.358C227.499 240.256 241.487 231.819 252.597 224.835C228.825 238.491 191.388 260.36 173.41 270.876C173.07 271.069 172.667 271.121 172.289 271.022C172.103 270.973 171.928 270.887 171.776 270.77C171.624 270.653 171.496 270.506 171.401 270.339C170.65 269.032 170.426 268.652 183.35 260.516C178.288 263.296 175.088 264.496 173.459 264.116C173.152 264.052 172.861 263.924 172.605 263.741C172.35 263.558 172.136 263.323 171.977 263.052C171.001 261.375 171.001 261.375 194.47 247.748C205.327 241.446 218.281 233.916 230.201 226.678C240.209 220.026 248.042 214.973 253.982 211.461C257.098 209.389 260.055 207.087 262.829 204.575C250.646 210.047 202.537 239.135 172.113 258.058C171.785 258.265 171.387 258.333 171.009 258.247C170.63 258.161 170.301 257.928 170.094 257.6C169.887 257.271 169.819 256.874 169.905 256.495C169.991 256.117 170.224 255.788 170.552 255.581L179.995 249.572C172.191 253.581 169.265 254.254 168.065 253.952C167.793 253.888 167.537 253.769 167.313 253.601C167.09 253.433 166.904 253.22 166.768 252.976C166.578 252.653 166.523 252.268 166.612 251.904C166.701 251.54 166.928 251.225 167.246 251.025L188.032 237.701C171.04 247.299 169.665 246.958 168.826 246.743C168.603 246.691 168.393 246.594 168.208 246.458C168.024 246.323 167.869 246.151 167.753 245.953C167.57 245.626 167.52 245.241 167.613 244.878C167.705 244.515 167.933 244.202 168.25 244.002C190.159 230.453 221.285 210.837 239.458 198.537C224.777 206.994 203.366 219.558 188.305 228.415L171.518 238.169C167.792 240.344 165.987 241.407 165.022 241.895L164.768 242.051C164.095 242.373 163.929 242.324 163.646 242.246C163.371 242.173 163.123 242.021 162.933 241.808C162.743 241.596 162.619 241.333 162.577 241.051C162.534 240.769 162.575 240.481 162.694 240.222C162.813 239.963 163.005 239.745 163.246 239.593C186.481 225.225 220.797 203.57 236.17 192.918C227.986 197.659 215.764 205.453 205.932 211.744C178.366 229.302 169.987 234.355 167.558 233.75C167.327 233.695 167.109 233.595 166.918 233.454C166.727 233.313 166.567 233.135 166.446 232.931C165.841 231.868 165.402 231.117 174.561 224.513C172.064 225.615 170.377 226.034 169.392 225.8C169.113 225.737 168.85 225.618 168.619 225.45C168.387 225.283 168.192 225.07 168.046 224.825C167.864 224.498 167.814 224.115 167.905 223.753C167.995 223.391 168.22 223.077 168.533 222.874C186.53 211.549 213.882 193.796 223.285 186.451C215.052 190.48 197.084 202.058 186.511 208.828C169.236 219.84 168.592 220.114 167.489 219.84C167.287 219.794 167.097 219.706 166.929 219.584C166.762 219.462 166.62 219.307 166.514 219.128C165.734 217.792 165.051 216.602 181.965 204.975C179.878 206.301 177.741 207.677 175.556 209.081C175.376 209.228 175.164 209.331 174.938 209.383C174.711 209.436 174.476 209.436 174.249 209.384C174.057 209.338 173.876 209.252 173.718 209.133C173.561 209.014 173.429 208.864 173.332 208.691C172.289 206.887 173.791 205.336 185.662 196.235C185.444 196.189 185.239 196.097 185.059 195.966C184.879 195.835 184.729 195.667 184.618 195.474C184.437 195.137 184.394 194.744 184.498 194.376C184.602 194.009 184.844 193.696 185.174 193.503C185.448 193.353 185.761 193.289 186.072 193.318C187.615 192.422 189.109 191.445 190.549 190.392C195.309 187.046 196.655 186.246 197.816 186.49C198.043 186.54 198.257 186.635 198.445 186.771C198.633 186.907 198.79 187.08 198.908 187.28C199.747 188.743 199.094 189.621 191.105 195.806C193.329 194.43 195.621 193.006 197.933 191.601C220.485 177.809 222.231 178.218 223.295 178.472C223.529 178.522 223.749 178.621 223.943 178.762C224.136 178.903 224.297 179.084 224.416 179.291C224.6 179.617 224.651 180.001 224.561 180.364C224.47 180.727 224.244 181.041 223.929 181.242C212.926 188.07 201.493 195.464 191.905 201.853C214.164 187.641 224.865 181.369 227.879 182.13C228.141 182.188 228.387 182.3 228.604 182.457C228.82 182.615 229.002 182.816 229.137 183.047C230.064 184.656 230.737 185.827 199.942 206.096L195.514 209.023C201.718 205.121 208 201.024 213.072 197.708C232.825 184.89 236.024 183.008 237.517 183.359C237.721 183.412 237.913 183.506 238.08 183.636C238.248 183.765 238.388 183.926 238.492 184.11C238.679 184.434 238.733 184.818 238.644 185.181C238.555 185.545 238.329 185.86 238.014 186.061C218.915 198.234 191.017 216.407 177.224 226.171C184.638 221.801 195.143 215.1 204.293 209.267C233.293 190.733 242.755 185.124 245.427 185.768C245.666 185.825 245.891 185.93 246.089 186.076C246.287 186.221 246.453 186.406 246.578 186.617C247.29 187.856 247.807 188.734 230.844 200.058C254.616 186.266 255.074 186.402 255.826 186.578C256.017 186.627 256.196 186.713 256.353 186.832C256.511 186.951 256.643 187.1 256.742 187.27C257.718 188.958 258.41 190.197 213.56 218.855C210.302 220.943 207.034 223.02 203.805 225.049C221.558 214.554 242.716 201.639 258.742 191.631C258.91 191.528 259.096 191.46 259.29 191.43C259.485 191.4 259.683 191.408 259.874 191.455C260.257 191.553 260.587 191.798 260.791 192.138C261.483 193.347 260.459 194.089 259.376 194.83C258.713 195.289 257.737 195.952 256.45 196.781C254.089 198.351 250.597 200.683 246.091 203.609C238.502 208.555 227.899 215.412 214.574 223.996C201.737 232.258 188.803 240.578 179.936 246.246C191.651 240.052 214.438 226.669 258.332 198.625C264.653 194.596 264.653 194.596 265.297 194.723C265.49 194.77 265.672 194.856 265.831 194.975C265.99 195.094 266.124 195.244 266.224 195.415C266.585 196.04 266.79 196.391 265.619 197.435C264.058 198.8 260.176 201.336 251.319 207.091C263.863 200.215 265.034 200.497 265.795 200.692C266.016 200.742 266.225 200.837 266.408 200.972C266.591 201.106 266.744 201.277 266.858 201.473C267.385 202.39 267.511 203.492 265.56 205.677C266.33 205.437 267.144 205.377 267.941 205.501C268.259 205.568 268.559 205.7 268.823 205.89C269.087 206.08 269.308 206.323 269.472 206.604C270.447 208.281 270.935 209.14 241.955 227.42C272.642 209.647 272.945 209.725 273.676 209.92C273.864 209.968 274.04 210.053 274.194 210.17C274.348 210.288 274.477 210.435 274.574 210.603C275.549 212.222 273.793 213.851 269.599 216.914C266.897 218.865 263.083 221.44 257.972 224.718C275.013 214.076 279.285 211.871 280.807 212.242C281.022 212.294 281.224 212.389 281.402 212.522C281.58 212.654 281.729 212.821 281.841 213.012C281.938 213.178 282.002 213.362 282.027 213.553C282.052 213.744 282.038 213.939 281.987 214.124C281.937 214.313 281.851 214.489 281.732 214.643C281.613 214.797 281.464 214.926 281.294 215.022C271.345 220.66 261.23 226.493 251.456 232.248L241.33 238.647C221.422 251.25 206.897 260.312 196.704 266.242C193.475 268.456 190.715 270.427 188.501 272.095C197.572 266.73 213.023 257.61 228.494 248.587C277.266 220.045 278.007 220.25 278.934 220.494C279.125 220.543 279.304 220.63 279.462 220.748C279.619 220.867 279.751 221.016 279.851 221.187C279.992 221.436 280.081 221.712 280.113 221.997C280.145 222.282 280.119 222.57 280.036 222.845C279.748 223.789 279.197 224.632 278.446 225.274C281.792 223.606 283.889 222.923 284.923 223.167C285.174 223.224 285.411 223.333 285.619 223.486C285.827 223.638 286.002 223.832 286.133 224.054C286.913 225.4 285.82 226.132 283.411 227.732C281.958 228.707 279.812 230.063 276.837 231.916L276.261 232.277C280.807 230.102 283.996 229.078 285.596 229.468C285.923 229.535 286.232 229.67 286.504 229.863C286.776 230.056 287.005 230.304 287.176 230.59C288.522 232.921 287.176 234.404 239.584 262.555C219.598 274.465 193.192 290.072 185.994 295.925C189.964 294.53 199.855 289.75 224.436 274.875C244.471 262.75 266.536 248.596 277.11 241.798C284.455 237.086 284.445 237.096 285.099 237.252C285.487 237.351 285.82 237.6 286.025 237.945C286.62 238.979 287.225 240.022 279.197 246.002C280.331 245.489 281.576 245.274 282.816 245.377C283.089 245.442 283.346 245.562 283.571 245.73C283.796 245.897 283.984 246.109 284.123 246.353C284.982 247.845 284.982 247.845 269.199 258.185C261.395 263.277 250.568 270.31 236.912 279.089C223.743 287.556 210.467 296.052 201.376 301.856C219.793 291.984 254.304 270.095 269.657 260.36C283.313 251.728 283.314 251.728 284.055 251.913C284.246 251.962 284.425 252.049 284.583 252.167C284.74 252.286 284.872 252.435 284.972 252.606C286.015 254.42 284.357 256.995 277.939 261.765C278.126 261.738 278.317 261.738 278.505 261.765C278.743 261.822 278.969 261.927 279.166 262.072C279.364 262.218 279.53 262.402 279.656 262.614C280.68 264.389 281.841 266.398 238.55 293.506C250.997 285.839 263.912 277.684 274.339 270.924C274.506 270.816 274.693 270.742 274.89 270.708C275.086 270.674 275.287 270.681 275.481 270.728C275.674 270.774 275.856 270.86 276.016 270.979C276.175 271.098 276.308 271.249 276.407 271.422C277.119 272.67 276.134 273.373 274.456 274.543C273.481 275.236 272.008 276.25 270.077 277.538C268.145 278.825 265.746 280.464 262.849 282.337C266.887 280.289 269.384 279.459 270.652 279.772C270.928 279.834 271.187 279.952 271.414 280.12C271.64 280.288 271.83 280.502 271.969 280.747C272.788 282.161 272.603 282.698 262.732 289.077C264.809 288.19 266.282 287.868 267.228 288.102C267.522 288.165 267.8 288.289 268.043 288.465C268.287 288.641 268.491 288.867 268.643 289.126C269.794 291.077 268.926 291.994 242.491 308.001C234.922 312.585 225.392 318.35 217.676 323.325L269.579 293.369C269.745 293.271 269.929 293.207 270.12 293.182C270.311 293.157 270.506 293.171 270.691 293.223C271.064 293.322 271.383 293.564 271.579 293.896C272.301 295.154 271.277 295.905 269.579 297.154C268.555 297.905 267.053 298.968 264.985 300.392C261.132 303.065 255.777 306.684 250.109 310.527C243.506 314.995 235.195 320.623 228.386 325.354C231.518 323.286 234.776 321.072 237.673 319.101C252.763 308.84 259.132 304.733 261.62 305.279C261.88 305.337 262.126 305.446 262.343 305.603C262.559 305.759 262.741 305.957 262.878 306.187C263.727 307.669 263.766 307.738 246.461 320.272C259.015 311.922 263.122 309.542 264.995 309.962C265.236 310.016 265.463 310.12 265.663 310.266C265.862 310.412 266.03 310.597 266.155 310.81C266.838 312 266.838 312 258.108 319.131C255.474 321.277 251.816 324.262 248.519 327.022C251.192 325.374 254.138 323.501 256.938 321.686C257.104 321.578 257.292 321.504 257.488 321.47C257.684 321.436 257.885 321.443 258.079 321.49C258.272 321.536 258.454 321.622 258.614 321.741C258.773 321.86 258.906 322.011 259.005 322.184C259.552 323.159 259.347 323.354 257.347 325.5C255.718 327.246 254.323 328.778 253.143 330.085C262 324.808 262.322 324.896 262.946 325.052C263.136 325.101 263.314 325.188 263.47 325.306C263.625 325.425 263.756 325.574 263.853 325.744C263.951 325.91 264.014 326.094 264.04 326.285C264.066 326.476 264.054 326.67 264.004 326.856C263.954 327.042 263.867 327.217 263.749 327.369C263.632 327.521 263.484 327.649 263.317 327.744C263.176 327.829 263.021 327.888 262.858 327.919C261.561 328.505 254.353 332.748 248.003 336.591C247.789 336.689 247.555 336.736 247.32 336.728ZM261.395 327.139C261.55 327.401 261.782 327.608 262.059 327.734C261.784 327.605 261.553 327.398 261.395 327.139ZM225.382 312.244C216.954 317.502 208.663 322.769 203.259 326.525C209.141 323.023 217.686 317.385 225.382 312.244ZM261.659 286.268C252.09 291.574 236.609 301.543 224.846 309.142C229.176 306.44 234.112 303.387 239.721 299.934C247.447 295.184 255.767 290.072 261.659 286.268ZM261.034 293.096C255.835 295.866 247.944 300.9 240.248 305.923L241.057 305.435C248.246 301.065 256.05 296.335 261.034 293.077V293.096ZM213.072 271.188C206.634 275.216 200.781 279.011 195.904 282.269C200.957 279.04 206.946 275.168 213.072 271.188ZM282.514 232.824C279.685 233.799 273.686 236.53 260.995 244.148C248.305 251.767 232.971 261.784 219.315 270.661C213.355 274.563 208.341 277.782 204.108 280.493C212.321 275.441 223.353 268.837 238.092 260.116C256.03 249.474 276.085 237.613 282.514 232.824ZM273.354 261.443L271.286 262.76C264.458 267.097 257.991 271.178 251.885 275.002C260.03 270.105 267.726 265.316 273.354 261.443ZM208.663 254.956C199.718 260.36 191.027 265.686 185.252 269.325C188.179 267.832 191.7 265.833 195.68 263.472C199.591 260.809 203.971 257.931 208.663 254.956ZM231.566 229.185C227.821 231.682 224.133 234.16 220.68 236.472C213.852 241.076 207.785 245.095 202.527 248.548L207.902 245.231C227.655 233.058 256.177 215.461 264.566 209.081C261.463 210.468 258.455 212.058 255.562 213.841C252.226 216.173 247.983 218.972 242.608 222.367C239.106 224.562 235.39 226.844 231.566 229.166V229.185Z" fill="#FFDE59"/>
<g opacity="0.4">
<path opacity="0.4" d="M247.32 336.728C247.198 336.726 247.077 336.71 246.959 336.679C246.578 336.58 246.252 336.334 246.052 335.996C245.544 335.108 245.271 334.63 249.388 329.909C240.511 335.343 239.565 335.118 239.048 334.991C238.643 334.872 238.296 334.608 238.073 334.25C237.253 332.836 237.097 332.553 253.524 319.111C250.89 320.818 248.149 322.652 245.72 324.271C231.264 333.918 226.767 336.659 224.777 336.201C224.536 336.146 224.309 336.042 224.109 335.897C223.91 335.751 223.742 335.565 223.616 335.352C222.739 333.831 222.739 333.831 242.15 319.804L245.993 317.033C243.75 318.526 241.516 320.048 239.467 321.442C224.192 331.831 217.237 336.318 214.633 335.733C214.361 335.671 214.105 335.553 213.883 335.384C213.661 335.216 213.478 335.002 213.345 334.757C212.37 333.109 212.175 332.738 240.404 313.561L203.278 335.021C202.948 335.205 202.558 335.252 202.193 335.151C201.828 335.051 201.518 334.811 201.328 334.484C200.674 333.353 201.181 331.967 203.864 329.607C199.591 332.065 197.114 333.05 195.894 332.767C195.641 332.709 195.401 332.6 195.19 332.448C194.979 332.295 194.801 332.102 194.665 331.88C193.856 330.475 194.168 329.178 204.498 322.233C193.846 328.895 189.915 330.855 188.383 330.495C188.156 330.441 187.942 330.342 187.754 330.203C187.566 330.063 187.408 329.887 187.291 329.685C186.579 328.466 187.242 328.027 189.691 326.407L195.085 322.886L203.337 317.55C194.246 322.272 192.88 321.95 192.119 321.764C191.863 321.706 191.621 321.596 191.408 321.442C191.196 321.288 191.016 321.092 190.881 320.867C190.701 320.536 190.655 320.149 190.753 319.786C190.851 319.423 191.086 319.111 191.407 318.916C220.037 301.943 264.234 274.719 274.886 265.715C264.263 270.544 232.503 290.267 214.408 301.534C191.105 316.019 190.998 315.99 190.022 315.736C189.821 315.691 189.63 315.605 189.463 315.485C189.295 315.364 189.154 315.211 189.047 315.034C188.257 313.668 188.296 312.79 197.621 307.016C193.329 309.035 190.5 309.942 189.252 309.649C188.978 309.586 188.721 309.466 188.496 309.298C188.271 309.13 188.084 308.918 187.945 308.674C187.758 308.35 187.703 307.966 187.792 307.603C187.881 307.239 188.107 306.924 188.422 306.723C217.315 288.316 257.962 262.253 274.544 251.24C269.93 253.591 263.736 257.093 256.85 261.219C251.28 264.799 244.676 268.964 236.863 273.821C226.543 280.25 216.106 286.619 207.414 291.887C186.423 305.133 186.169 305.075 185.145 304.821C184.943 304.772 184.754 304.685 184.586 304.562C184.419 304.44 184.277 304.286 184.17 304.109C183.99 303.778 183.944 303.391 184.042 303.028C184.14 302.665 184.374 302.353 184.696 302.158C191.017 298.403 197.992 294.218 205.229 289.828L209.034 287.429C193.875 296.1 185.496 299.895 183.028 299.29C182.743 299.235 182.473 299.119 182.236 298.951C181.998 298.782 181.8 298.566 181.653 298.315C180.746 296.754 182.033 294.764 192.724 287.78C185.828 291.984 183.097 293.233 181.936 292.95C181.714 292.9 181.506 292.805 181.323 292.671C181.14 292.536 180.987 292.366 180.873 292.169C180.258 291.106 179.761 290.219 186.901 285.039C183.058 286.99 180.629 287.78 179.468 287.497C179.205 287.44 178.956 287.329 178.738 287.171C178.52 287.014 178.336 286.812 178.2 286.58C178.102 286.412 178.038 286.227 178.013 286.034C177.988 285.841 178.002 285.646 178.054 285.458C178.156 285.085 178.401 284.766 178.736 284.571C210.389 266.574 258.323 238.071 272.915 226.571C256.908 235.408 212.779 261.316 181.985 279.576C181.818 279.675 181.634 279.739 181.443 279.765C181.252 279.792 181.057 279.781 180.87 279.732C180.683 279.683 180.508 279.597 180.355 279.48C180.201 279.363 180.072 279.217 179.975 279.05C179.826 278.782 179.732 278.486 179.7 278.181C179.668 277.876 179.699 277.567 179.79 277.274C180.333 276.038 181.154 274.943 182.189 274.075C179.917 275.002 178.395 275.343 177.527 275.128C177.257 275.063 177.003 274.942 176.782 274.774C176.56 274.607 176.376 274.395 176.239 274.153C175.361 272.641 177.039 271.471 179.575 269.705C181.526 268.388 184.287 266.564 188.149 264.145C195.358 259.638 205.249 253.669 215.725 247.358C227.499 240.256 241.487 231.819 252.597 224.835C228.825 238.491 191.388 260.36 173.41 270.876C173.07 271.069 172.667 271.121 172.289 271.022C172.103 270.973 171.928 270.887 171.776 270.77C171.624 270.653 171.496 270.506 171.401 270.339C170.65 269.032 170.426 268.652 183.35 260.516C178.288 263.296 175.088 264.496 173.459 264.116C173.152 264.052 172.861 263.924 172.605 263.741C172.35 263.558 172.136 263.323 171.977 263.052C171.001 261.375 171.001 261.375 194.47 247.748C205.327 241.446 218.281 233.916 230.201 226.678C240.209 220.026 248.042 214.973 253.982 211.461C257.098 209.389 260.055 207.087 262.829 204.575C250.646 210.047 202.537 239.135 172.113 258.058C171.785 258.265 171.387 258.333 171.009 258.247C170.63 258.161 170.301 257.928 170.094 257.6C169.887 257.271 169.819 256.874 169.905 256.495C169.991 256.117 170.224 255.788 170.552 255.581L179.995 249.572C172.191 253.581 169.265 254.254 168.065 253.952C167.793 253.888 167.537 253.769 167.313 253.601C167.09 253.433 166.904 253.22 166.768 252.976C166.578 252.653 166.523 252.268 166.612 251.904C166.701 251.54 166.928 251.225 167.246 251.025L188.032 237.701C171.04 247.299 169.665 246.958 168.826 246.743C168.603 246.691 168.393 246.594 168.208 246.458C168.024 246.323 167.869 246.151 167.753 245.953C167.57 245.626 167.52 245.241 167.613 244.878C167.705 244.515 167.933 244.202 168.25 244.002C190.159 230.453 221.285 210.837 239.458 198.537C224.777 206.994 203.366 219.558 188.305 228.415L171.518 238.169C167.792 240.344 165.987 241.407 165.022 241.895L164.768 242.051C164.095 242.373 163.929 242.324 163.646 242.246C163.371 242.173 163.123 242.021 162.933 241.808C162.743 241.596 162.619 241.333 162.577 241.051C162.534 240.769 162.575 240.481 162.694 240.222C162.813 239.963 163.005 239.745 163.246 239.593C186.481 225.225 220.797 203.57 236.17 192.918C227.986 197.659 215.764 205.453 205.932 211.744C178.366 229.302 169.987 234.355 167.558 233.75C167.327 233.695 167.109 233.595 166.918 233.454C166.727 233.313 166.567 233.135 166.446 232.931C165.841 231.868 165.402 231.117 174.561 224.513C172.064 225.615 170.377 226.034 169.392 225.8C169.113 225.737 168.85 225.618 168.619 225.45C168.387 225.283 168.192 225.07 168.046 224.825C167.864 224.498 167.814 224.115 167.905 223.753C167.995 223.391 168.22 223.077 168.533 222.874C186.53 211.549 213.882 193.796 223.285 186.451C215.052 190.48 197.084 202.058 186.511 208.828C169.236 219.84 168.592 220.114 167.489 219.84C167.287 219.794 167.097 219.706 166.929 219.584C166.762 219.462 166.62 219.307 166.514 219.128C165.734 217.792 165.051 216.602 181.965 204.975C179.878 206.301 177.741 207.677 175.556 209.081C175.376 209.228 175.164 209.331 174.938 209.383C174.711 209.436 174.476 209.436 174.249 209.384C174.057 209.338 173.876 209.252 173.718 209.133C173.561 209.014 173.429 208.864 173.332 208.691C172.289 206.887 173.791 205.336 185.662 196.235C185.444 196.189 185.239 196.097 185.059 195.966C184.879 195.835 184.729 195.667 184.618 195.474C184.437 195.137 184.394 194.744 184.498 194.376C184.602 194.009 184.844 193.696 185.174 193.503C185.448 193.353 185.761 193.289 186.072 193.318C187.615 192.422 189.109 191.445 190.549 190.392C195.309 187.046 196.655 186.246 197.816 186.49C198.043 186.54 198.257 186.635 198.445 186.771C198.633 186.907 198.79 187.08 198.908 187.28C199.747 188.743 199.094 189.621 191.105 195.806C193.329 194.43 195.621 193.006 197.933 191.601C220.485 177.809 222.231 178.218 223.295 178.472C223.529 178.522 223.749 178.621 223.943 178.762C224.136 178.903 224.297 179.084 224.416 179.291C224.6 179.617 224.651 180.001 224.561 180.364C224.47 180.727 224.244 181.041 223.929 181.242C212.926 188.07 201.493 195.464 191.905 201.853C214.164 187.641 224.865 181.369 227.879 182.13C228.141 182.188 228.387 182.3 228.604 182.457C228.82 182.615 229.002 182.816 229.137 183.047C230.064 184.656 230.737 185.827 199.942 206.096L195.514 209.023C201.718 205.121 208 201.024 213.072 197.708C232.825 184.89 236.024 183.008 237.517 183.359C237.721 183.412 237.913 183.506 238.08 183.636C238.248 183.765 238.388 183.926 238.492 184.11C238.679 184.434 238.733 184.818 238.644 185.181C238.555 185.545 238.329 185.86 238.014 186.061C218.915 198.234 191.017 216.407 177.224 226.171C184.638 221.801 195.143 215.1 204.293 209.267C233.293 190.733 242.755 185.124 245.427 185.768C245.666 185.825 245.891 185.93 246.089 186.076C246.287 186.221 246.453 186.406 246.578 186.617C247.29 187.856 247.807 188.734 230.844 200.058C254.616 186.266 255.074 186.402 255.826 186.578C256.017 186.627 256.196 186.713 256.353 186.832C256.511 186.951 256.643 187.1 256.742 187.27C257.718 188.958 258.41 190.197 213.56 218.855C210.302 220.943 207.034 223.02 203.805 225.049C221.558 214.554 242.716 201.639 258.742 191.631C258.91 191.528 259.096 191.46 259.29 191.43C259.485 191.4 259.683 191.408 259.874 191.455C260.257 191.553 260.587 191.798 260.791 192.138C261.483 193.347 260.459 194.089 259.376 194.83C258.713 195.289 257.737 195.952 256.45 196.781C254.089 198.351 250.597 200.683 246.091 203.609C238.502 208.555 227.899 215.412 214.574 223.996C201.737 232.258 188.803 240.578 179.936 246.246C191.651 240.052 214.438 226.669 258.332 198.625C264.653 194.596 264.653 194.596 265.297 194.723C265.49 194.77 265.672 194.856 265.831 194.975C265.99 195.094 266.124 195.244 266.224 195.415C266.585 196.04 266.79 196.391 265.619 197.435C264.058 198.8 260.176 201.336 251.319 207.091C263.863 200.215 265.034 200.497 265.795 200.692C266.016 200.742 266.225 200.837 266.408 200.972C266.591 201.106 266.744 201.277 266.858 201.473C267.385 202.39 267.511 203.492 265.56 205.677C266.33 205.437 267.144 205.377 267.941 205.501C268.259 205.568 268.559 205.7 268.823 205.89C269.087 206.08 269.308 206.323 269.472 206.604C270.447 208.281 270.935 209.14 241.955 227.42C272.642 209.647 272.945 209.725 273.676 209.92C273.864 209.968 274.04 210.053 274.194 210.17C274.348 210.288 274.477 210.435 274.574 210.603C275.549 212.222 273.793 213.851 269.599 216.914C266.897 218.865 263.083 221.44 257.972 224.718C275.013 214.076 279.285 211.871 280.807 212.242C281.022 212.294 281.224 212.389 281.402 212.522C281.58 212.654 281.729 212.821 281.841 213.012C281.938 213.178 282.002 213.362 282.027 213.553C282.052 213.744 282.038 213.939 281.987 214.124C281.937 214.313 281.851 214.489 281.732 214.643C281.613 214.797 281.464 214.926 281.294 215.022C271.345 220.66 261.23 226.493 251.456 232.248L241.33 238.647C221.422 251.25 206.897 260.312 196.704 266.242C193.475 268.456 190.715 270.427 188.501 272.095C197.572 266.73 213.023 257.61 228.494 248.587C277.266 220.045 278.007 220.25 278.934 220.494C279.125 220.543 279.304 220.63 279.462 220.748C279.619 220.867 279.751 221.016 279.851 221.187C279.992 221.436 280.081 221.712 280.113 221.997C280.145 222.282 280.119 222.57 280.036 222.845C279.748 223.789 279.197 224.632 278.446 225.274C281.792 223.606 283.889 222.923 284.923 223.167C285.174 223.224 285.411 223.333 285.619 223.486C285.827 223.638 286.002 223.832 286.133 224.054C286.913 225.4 285.82 226.132 283.411 227.732C281.958 228.707 279.812 230.063 276.837 231.916L276.261 232.277C280.807 230.102 283.996 229.078 285.596 229.468C285.923 229.535 286.232 229.67 286.504 229.863C286.776 230.056 287.005 230.304 287.176 230.59C288.522 232.921 287.176 234.404 239.584 262.555C219.598 274.465 193.192 290.072 185.994 295.925C189.964 294.53 199.855 289.75 224.436 274.875C244.471 262.75 266.536 248.596 277.11 241.798C284.455 237.086 284.445 237.096 285.099 237.252C285.487 237.351 285.82 237.6 286.025 237.945C286.62 238.979 287.225 240.022 279.197 246.002C280.331 245.489 281.576 245.274 282.816 245.377C283.089 245.442 283.346 245.562 283.571 245.73C283.796 245.897 283.984 246.109 284.123 246.353C284.982 247.845 284.982 247.845 269.199 258.185C261.395 263.277 250.568 270.31 236.912 279.089C223.743 287.556 210.467 296.052 201.376 301.856C219.793 291.984 254.304 270.095 269.657 260.36C283.313 251.728 283.314 251.728 284.055 251.913C284.246 251.962 284.425 252.049 284.583 252.167C284.74 252.286 284.872 252.435 284.972 252.606C286.015 254.42 284.357 256.995 277.939 261.765C278.126 261.738 278.317 261.738 278.505 261.765C278.743 261.822 278.969 261.927 279.166 262.072C279.364 262.218 279.53 262.402 279.656 262.614C280.68 264.389 281.841 266.398 238.55 293.506C250.997 285.839 263.912 277.684 274.339 270.924C274.506 270.816 274.693 270.742 274.89 270.708C275.086 270.674 275.287 270.681 275.481 270.728C275.674 270.774 275.856 270.86 276.016 270.979C276.175 271.098 276.308 271.249 276.407 271.422C277.119 272.67 276.134 273.373 274.456 274.543C273.481 275.236 272.008 276.25 270.077 277.538C268.145 278.825 265.746 280.464 262.849 282.337C266.887 280.289 269.384 279.459 270.652 279.772C270.928 279.834 271.187 279.952 271.414 280.12C271.64 280.288 271.83 280.502 271.969 280.747C272.788 282.161 272.603 282.698 262.732 289.077C264.809 288.19 266.282 287.868 267.228 288.102C267.522 288.165 267.8 288.289 268.043 288.465C268.287 288.641 268.491 288.867 268.643 289.126C269.794 291.077 268.926 291.994 242.491 308.001C234.922 312.585 225.392 318.35 217.676 323.325L269.579 293.369C269.745 293.271 269.929 293.207 270.12 293.182C270.311 293.157 270.506 293.171 270.691 293.223C271.064 293.322 271.383 293.564 271.579 293.896C272.301 295.154 271.277 295.905 269.579 297.154C268.555 297.905 267.053 298.968 264.985 300.392C261.132 303.065 255.777 306.684 250.109 310.527C243.506 314.995 235.195 320.623 228.386 325.354C231.518 323.286 234.776 321.072 237.673 319.101C252.763 308.84 259.132 304.733 261.62 305.279C261.88 305.337 262.126 305.446 262.343 305.603C262.559 305.759 262.741 305.957 262.878 306.187C263.727 307.669 263.766 307.738 246.461 320.272C259.015 311.922 263.122 309.542 264.995 309.962C265.236 310.016 265.463 310.12 265.663 310.266C265.862 310.412 266.03 310.597 266.155 310.81C266.838 312 266.838 312 258.108 319.131C255.474 321.277 251.816 324.262 248.519 327.022C251.192 325.374 254.138 323.501 256.938 321.686C257.104 321.578 257.292 321.504 257.488 321.47C257.684 321.436 257.885 321.443 258.079 321.49C258.272 321.536 258.454 321.622 258.614 321.741C258.773 321.86 258.906 322.011 259.005 322.184C259.552 323.159 259.347 323.354 257.347 325.5C255.718 327.246 254.323 328.778 253.143 330.085C262 324.808 262.322 324.896 262.946 325.052C263.136 325.101 263.314 325.188 263.47 325.306C263.625 325.425 263.756 325.574 263.853 325.744C263.951 325.91 264.014 326.094 264.04 326.285C264.066 326.476 264.054 326.67 264.004 326.856C263.954 327.042 263.867 327.217 263.749 327.369C263.632 327.521 263.484 327.649 263.317 327.744C263.176 327.829 263.021 327.888 262.858 327.919C261.561 328.505 254.353 332.748 248.003 336.591C247.789 336.689 247.555 336.736 247.32 336.728ZM261.395 327.139C261.55 327.401 261.782 327.608 262.059 327.734C261.784 327.605 261.553 327.398 261.395 327.139ZM225.382 312.244C216.954 317.502 208.663 322.769 203.259 326.525C209.141 323.023 217.686 317.385 225.382 312.244ZM261.659 286.268C252.09 291.574 236.609 301.543 224.846 309.142C229.176 306.44 234.112 303.387 239.721 299.934C247.447 295.184 255.767 290.072 261.659 286.268ZM261.034 293.096C255.835 295.866 247.944 300.9 240.248 305.923L241.057 305.435C248.246 301.065 256.05 296.335 261.034 293.077V293.096ZM213.072 271.188C206.634 275.216 200.781 279.011 195.904 282.269C200.957 279.04 206.946 275.168 213.072 271.188ZM282.514 232.824C279.685 233.799 273.686 236.53 260.995 244.148C248.305 251.767 232.971 261.784 219.315 270.661C213.355 274.563 208.341 277.782 204.108 280.493C212.321 275.441 223.353 268.837 238.092 260.116C256.03 249.474 276.085 237.613 282.514 232.824ZM273.354 261.443L271.286 262.76C264.458 267.097 257.991 271.178 251.885 275.002C260.03 270.105 267.726 265.316 273.354 261.443ZM208.663 254.956C199.718 260.36 191.027 265.686 185.252 269.325C188.179 267.832 191.7 265.833 195.68 263.472C199.591 260.809 203.971 257.931 208.663 254.956ZM231.566 229.185C227.821 231.682 224.133 234.16 220.68 236.472C213.852 241.076 207.785 245.095 202.527 248.548L207.902 245.231C227.655 233.058 256.177 215.461 264.566 209.081C261.463 210.468 258.455 212.058 255.562 213.841C252.226 216.173 247.983 218.972 242.608 222.367C239.106 224.562 235.39 226.844 231.566 229.166V229.185Z" fill="white"/>
</g>
<path d="M226.602 180.384H225.948C190.579 181.037 163.92 208.096 163.92 241.388C163.904 251.33 166.329 261.124 170.982 269.91C172.933 274.543 177.654 285.888 182.327 300.558C186.658 314.097 188.921 327.724 188.921 329.822C188.921 330.017 188.921 330.221 188.921 330.446C188.901 331.058 189.005 331.668 189.225 332.239C189.446 332.811 189.779 333.332 190.204 333.772C190.63 334.213 191.14 334.563 191.703 334.802C192.267 335.042 192.873 335.166 193.486 335.167H256.831C257.443 335.166 258.049 335.042 258.613 334.802C259.177 334.563 259.687 334.213 260.112 333.772C260.538 333.332 260.871 332.811 261.091 332.239C261.312 331.668 261.416 331.058 261.396 330.446C261.396 330.221 261.396 330.017 261.396 329.822C261.396 327.763 263.659 314.136 267.98 300.558C272.662 285.927 277.335 274.543 279.325 269.91C284.189 260.706 286.618 250.411 286.381 240.003C286.144 229.595 283.248 219.421 277.969 210.449C272.69 201.476 265.203 194.003 256.22 188.741C247.238 183.479 237.059 180.602 226.651 180.384H226.602Z" stroke="#263238" stroke-width="2" stroke-linecap="round" stroke-linejoin="round"/>
<path d="M247.974 190.177C246.208 189.384 244.397 188.693 242.551 188.109" stroke="#263238" stroke-width="3" stroke-linecap="round" stroke-linejoin="round"/>
<path d="M268.301 205.667C268.301 205.667 263.326 197.766 252.392 192.391" stroke="#263238" stroke-width="3" stroke-linecap="round" stroke-linejoin="round"/>
<path d="M221.109 307.503V276.172C221.109 276.172 223.518 260.916 215.588 260.916C207.657 260.916 208.262 268.856 217.412 277.391C226.562 285.927 240.608 278.006 242.442 271.295C244.276 264.584 239.389 261.541 236.336 267.023C233.282 272.505 236.336 334.767 236.336 334.767" stroke="#263238" stroke-width="3" stroke-linecap="round" stroke-linejoin="round"/>
<path d="M204.146 164.533L207.522 175.155" stroke="#263238" stroke-width="3" stroke-linecap="round" stroke-linejoin="round"/>
<path d="M286.845 187.7L275.734 196.391" stroke="#263238" stroke-width="3" stroke-linecap="round" stroke-linejoin="round"/>
<path d="M245.651 156.778L241.467 175.155" stroke="#263238" stroke-width="3" stroke-linecap="round" stroke-linejoin="round"/>
<path d="M258.595 339.732H191.69C190.833 339.732 190.139 340.426 190.139 341.283V342.054C190.139 342.91 190.833 343.605 191.69 343.605H258.595C259.452 343.605 260.146 342.91 260.146 342.054V341.283C260.146 340.426 259.452 339.732 258.595 339.732Z" fill="#263238" stroke="#263238" stroke-linecap="round" stroke-linejoin="round"/>
<path d="M258.595 348.452H191.69C190.833 348.452 190.139 349.147 190.139 350.003V350.774C190.139 351.631 190.833 352.325 191.69 352.325H258.595C259.452 352.325 260.146 351.631 260.146 350.774V350.003C260.146 349.147 259.452 348.452 258.595 348.452Z" fill="#263238" stroke="#263238" stroke-linecap="round" stroke-linejoin="round"/>
<path d="M258.595 357.173H191.69C190.833 357.173 190.139 357.867 190.139 358.724V359.494C190.139 360.351 190.833 361.045 191.69 361.045H258.595C259.452 361.045 260.146 360.351 260.146 359.494V358.724C260.146 357.867 259.452 357.173 258.595 357.173Z" fill="#263238" stroke="#263238" stroke-linecap="round" stroke-linejoin="round"/>
<path d="M227.197 365.688H192.842L202.733 379.345C203.581 380.517 204.695 381.472 205.984 382.13C207.272 382.788 208.699 383.13 210.146 383.129H240.385C241.835 383.128 243.264 382.783 244.555 382.121C245.845 381.46 246.96 380.502 247.808 379.325L257.621 365.737L227.197 365.688Z" fill="#263238" stroke="#263238" stroke-linecap="round" stroke-linejoin="round"/>
<path d="M300.949 219.841C300.949 219.841 294.706 226.669 289.594 230.063C284.483 233.458 280.923 237.974 285.615 240.286C288.434 241.671 292.443 239.72 292.443 239.72C292.443 239.72 286.19 241.417 285.059 247.104C283.927 252.791 296.374 250.489 296.374 250.489C296.374 250.489 287.292 256.732 290.131 259.005C292.969 261.277 298.647 259.57 301.485 259.57C304.324 259.57 318.526 250.489 321.969 250.489C325.413 250.489 332.192 257.873 332.192 263.55C332.192 269.227 341.244 268.661 342.405 251.055C343.566 233.448 339.001 218.69 331.617 214.144C324.232 209.598 300.949 219.841 300.949 219.841Z" fill="white" stroke="#263238" stroke-miterlimit="10" stroke-linecap="round"/>
<path d="M297.545 239.125L320.204 230.658C320.204 230.658 330.154 228.503 337.294 240.266" stroke="#263238" stroke-miterlimit="10" stroke-linecap="round"/>
<path d="M301.515 245.943L321.999 242.539C321.999 242.539 331.09 241.973 336.767 252.762" stroke="#263238" stroke-miterlimit="10" stroke-linecap="round"/>
<path d="M326.506 259.57L311.172 262.984L320.254 299.32C320.254 299.32 328.213 315.219 330.476 322.038C332.739 328.856 356.033 351.525 356.033 351.525L383.287 325.403C383.287 325.403 370.801 310.644 370.235 307.23C369.669 303.816 367.387 264.077 367.387 258.4C367.387 252.723 356.033 239.086 356.033 239.086C356.033 239.086 351.37 232.404 349.097 221.05C346.825 209.696 336.417 205.024 330.72 205.589C325.023 206.155 309.465 207.862 303.222 212.417C296.979 216.973 291.293 222.64 296.979 224.347C306.412 227.176 321.844 214.593 329.286 223.294C332.7 227.264 336.729 244.753 337.295 247.065C337.295 247.065 334.456 257.853 326.506 259.551" fill="white"/>
<path d="M326.506 259.57L311.172 262.984L320.254 299.32C320.254 299.32 328.213 315.219 330.476 322.038C332.739 328.856 356.033 351.525 356.033 351.525L383.287 325.403C383.287 325.403 370.801 310.644 370.235 307.23C369.669 303.816 367.387 264.077 367.387 258.4C367.387 252.723 356.033 239.086 356.033 239.086C356.033 239.086 351.37 232.404 349.097 221.05C346.825 209.696 336.417 205.024 330.72 205.589C325.023 206.155 309.465 207.862 303.222 212.417C296.979 216.973 291.293 222.64 296.979 224.347C306.412 227.176 321.844 214.593 329.286 223.294C332.7 227.264 336.729 244.753 337.295 247.065C337.295 247.065 334.456 257.853 326.506 259.551" stroke="#263238" stroke-miterlimit="10" stroke-linecap="round"/>
<path d="M269.326 206.789C269.499 206.607 269.733 206.493 269.983 206.468C270.234 206.443 270.485 206.508 270.691 206.653L273.013 208.262C273.242 208.423 273.398 208.669 273.447 208.944C273.497 209.22 273.435 209.504 273.276 209.735C273.117 209.963 272.873 210.119 272.599 210.169C272.325 210.218 272.042 210.157 271.813 209.998L269.491 208.379C269.263 208.22 269.107 207.976 269.058 207.702C269.008 207.428 269.07 207.145 269.228 206.916C269.255 206.87 269.288 206.827 269.326 206.789Z" fill="#263238" stroke="#263238" stroke-miterlimit="10" stroke-linecap="round"/>
<path d="M271.989 208.662C272.383 208.241 272.916 207.976 273.489 207.917C274.063 207.858 274.639 208.008 275.11 208.34L282.387 212.086L353.828 259.083C354.437 259.506 354.957 260.045 355.358 260.669C355.759 261.294 356.033 261.991 356.164 262.721C356.295 263.451 356.281 264.199 356.123 264.924C355.965 265.649 355.666 266.336 355.243 266.945C354.819 267.554 354.28 268.073 353.656 268.474C353.032 268.875 352.335 269.149 351.605 269.28C350.875 269.411 350.126 269.398 349.401 269.24C348.676 269.082 347.99 268.782 347.381 268.359L278.046 217.207L272.379 212.33C272.119 212.149 271.897 211.919 271.725 211.653C271.554 211.386 271.437 211.089 271.381 210.777C271.325 210.466 271.331 210.146 271.398 209.837C271.466 209.527 271.593 209.234 271.774 208.974C271.835 208.863 271.907 208.759 271.989 208.662Z" fill="#2091F9" stroke="#263238" stroke-miterlimit="10" stroke-linecap="round"/>
<path d="M353.838 259.083L333.217 245.524C331.626 245.985 330.223 246.941 329.211 248.253C328.199 249.564 327.631 251.164 327.589 252.82C327.59 253.147 327.616 253.473 327.667 253.796L347.39 268.349C348.62 269.204 350.14 269.536 351.614 269.27C353.089 269.005 354.397 268.165 355.252 266.935C356.107 265.705 356.439 264.185 356.174 262.711C355.908 261.237 355.068 259.928 353.838 259.073V259.083Z" fill="#263238" stroke="#263238" stroke-miterlimit="10" stroke-linecap="round"/>
<path d="M330.515 322.038C324.272 312.956 316.322 289.672 312.957 285.127C309.591 280.581 300.412 270.495 297.008 260.312C293.604 250.128 291.37 241.973 291.37 233.448C291.37 224.923 298.696 223.459 304.373 232.551C310.05 241.642 316.858 255.6 316.858 255.6C316.858 255.6 321.404 261.277 330.515 259.57" fill="white"/>
<path d="M330.515 322.038C324.272 312.956 316.322 289.672 312.957 285.127C309.591 280.581 300.412 270.495 297.008 260.312C293.604 250.128 291.37 241.973 291.37 233.448C291.37 224.923 298.696 223.459 304.373 232.551C310.05 241.642 316.858 255.6 316.858 255.6C316.858 255.6 321.404 261.277 330.515 259.57" stroke="#263238" stroke-miterlimit="10" stroke-linecap="round"/>
<path d="M298.414 229.897L300.365 233.692C300.365 233.692 299.936 233.692 296.902 235.418C295.092 236.45 293.572 237.923 292.483 239.701C292.483 239.701 289.557 231.526 292.142 228.971C292.769 228.307 293.6 227.872 294.502 227.732C295.298 227.648 296.099 227.811 296.799 228.199C297.499 228.586 298.062 229.179 298.414 229.897Z" fill="white" stroke="#263238" stroke-miterlimit="10" stroke-linecap="round"/>
<path d="M377.336 313.834C377.336 313.834 362.304 318.282 354.501 326.086C349.333 331.352 344.496 336.932 340.016 342.795L353.945 358.948C353.945 358.948 365.65 345.575 373.454 339.439C378.769 335.358 384.351 331.636 390.163 328.3L377.336 313.834Z" fill="white" stroke="#263238" stroke-miterlimit="10" stroke-linecap="round"/>
<path d="M391.295 431.355L347.293 360.616C347.293 360.616 358.432 343.907 367.904 335.557C377.376 327.208 389.627 324.974 389.627 324.974L444.642 377.774" fill="#545454"/>
<path d="M391.295 431.355L347.293 360.616C347.293 360.616 358.432 343.907 367.904 335.557C377.376 327.208 389.627 324.974 389.627 324.974L444.642 377.774" stroke="#263238" stroke-miterlimit="10" stroke-linecap="round"/>
<path d="M306.52 250.557L307.495 250.46" stroke="#263238" stroke-miterlimit="10" stroke-linecap="round"/>
<path d="M298.023 255.278C298.023 255.278 298.54 252.167 304.793 250.86" stroke="#263238" stroke-miterlimit="10" stroke-linecap="round"/>
<path d="M304.813 253.084C304.813 253.084 304.374 254.4 299.994 256.156" stroke="#263238" stroke-miterlimit="10" stroke-linecap="round"/>
<path d="M304.637 248.918C302.445 249.262 300.362 250.107 298.55 251.386" stroke="#263238" stroke-miterlimit="10" stroke-linecap="round"/>
<path d="M167.382 151.901C167.382 151.901 176.59 152.652 182.423 154.593C188.256 156.534 193.992 156.544 192.929 151.452C192.295 148.38 188.295 146.419 188.295 146.419C188.295 146.419 193.475 150.321 198.655 147.716C203.834 145.112 194.372 136.665 194.372 136.665C194.372 136.665 204.888 140.001 204.936 136.362C204.985 132.724 200.157 129.29 198.411 127.047C196.665 124.803 180.784 119.175 178.687 116.492C176.59 113.81 178.239 103.89 182.726 100.398C187.213 96.9055 181.184 90.1067 166.641 99.9977C152.097 109.889 143.23 122.56 144.118 131.212C145.005 139.864 167.382 151.901 167.382 151.901Z" fill="white" stroke="#263238" stroke-miterlimit="10" stroke-linecap="round"/>
<path d="M184.715 142.781L164.114 130.1C164.114 130.1 156.31 123.574 161.188 110.718" stroke="#263238" stroke-miterlimit="10" stroke-linecap="round"/>
<path d="M187.652 135.416L172.415 121.37C172.415 121.37 166.387 114.541 171.44 103.441" stroke="#263238" stroke-miterlimit="10" stroke-linecap="round"/>
<path d="M183.077 107.323L195.172 117.341L218.339 87.8533C218.339 87.8533 233.263 81.1521 237.194 75.1726C241.125 69.1931 244.471 36.8084 244.471 36.8084L207.024 31.5801C207.024 31.5801 203.21 50.5427 200.888 53.1081C198.567 55.6735 161.559 72.256 157.081 75.7481C152.604 79.2402 148.81 96.564 148.81 96.564C146.813 103.607 144.202 110.462 141.006 117.048C132.471 134.333 133.993 133.007 137.924 137.142C141.855 141.278 151.424 149.687 158.847 151.833C166.27 153.979 175.498 161.646 173.43 152.272C171.303 142.663 150.468 138.615 152.76 127.417C153.804 122.286 165.168 108.347 166.611 106.504C166.611 106.504 176.863 102.124 183.096 107.352" fill="white"/>
<path d="M183.077 107.323L195.172 117.341L218.339 87.8533C218.339 87.8533 233.263 81.1521 237.194 75.1726C241.125 69.1931 244.471 36.8084 244.471 36.8084L207.024 31.5801C207.024 31.5801 203.21 50.5427 200.888 53.1081C198.567 55.6735 161.559 72.256 157.081 75.7481C152.604 79.2402 148.81 96.564 148.81 96.564C146.813 103.607 144.202 110.462 141.006 117.048C132.471 134.333 133.993 133.007 137.924 137.142C141.855 141.278 151.424 149.687 158.847 151.833C166.27 153.979 175.498 161.646 173.43 152.272C171.303 142.663 150.468 138.615 152.76 127.417C153.804 122.286 165.168 108.347 166.611 106.504C166.611 106.504 176.863 102.124 183.096 107.352" stroke="#263238" stroke-miterlimit="10" stroke-linecap="round"/>
<path d="M176.512 184.871C176.259 184.853 176.022 184.744 175.843 184.565C175.663 184.386 175.555 184.148 175.537 183.895L175.39 181.067C175.371 180.923 175.381 180.776 175.421 180.637C175.461 180.497 175.53 180.367 175.622 180.255C175.715 180.143 175.829 180.051 175.959 179.986C176.089 179.92 176.231 179.882 176.376 179.874C176.521 179.866 176.666 179.888 176.802 179.938C176.938 179.989 177.062 180.068 177.167 180.169C177.271 180.27 177.354 180.391 177.409 180.526C177.464 180.66 177.491 180.804 177.488 180.95L177.644 183.778C177.66 184.055 177.566 184.326 177.384 184.534C177.201 184.743 176.944 184.87 176.668 184.89L176.512 184.871Z" fill="#263238" stroke="#263238" stroke-miterlimit="10" stroke-linecap="round"/>
<path d="M176.395 181.603C175.82 181.552 175.283 181.295 174.883 180.879C174.484 180.463 174.248 179.916 174.219 179.34L172.717 171.293L165.957 86.0489C165.877 84.5523 166.395 83.0851 167.396 81.9702C168.398 80.8552 169.801 80.1838 171.298 80.1036C172.794 80.0234 174.262 80.541 175.377 81.5425C176.492 82.5441 177.163 83.9475 177.243 85.4441L179.428 171.585L179.018 179.087C179.036 179.402 178.99 179.717 178.885 180.015C178.78 180.313 178.618 180.587 178.406 180.821C178.195 181.056 177.94 181.247 177.655 181.383C177.37 181.518 177.061 181.597 176.746 181.613C176.629 181.619 176.511 181.616 176.395 181.603Z" fill="#2091F9" stroke="#263238" stroke-miterlimit="10" stroke-linecap="round"/>
<path d="M165.91 86.0488L167.861 110.649C169.199 111.628 170.813 112.156 172.47 112.156C174.128 112.156 175.742 111.628 177.079 110.649C177.339 110.446 177.583 110.225 177.811 109.986L177.196 85.483C177.116 83.9864 176.445 82.583 175.33 81.5815C174.215 80.5799 172.748 80.0623 171.251 80.1425C169.754 80.2227 168.351 80.8941 167.349 82.0091C166.348 83.1241 165.83 84.5912 165.91 86.0878V86.0488Z" fill="#263238" stroke="#263238" stroke-miterlimit="10" stroke-linecap="round"/>
<path d="M237.147 75.1335C233.947 85.6781 219.823 100.173 217.365 105.284C211.853 116.865 205.475 128.014 198.285 138.635C195.856 142.273 193.232 142.79 191.633 144.097C189.292 146.048 188.092 148.048 184.092 151.15C177.372 156.378 171.714 151.511 175.401 141.454C179.088 131.397 185.858 117.419 185.858 117.419C185.858 117.419 187.555 110.347 180.639 104.221" fill="white"/>
<path d="M237.147 75.1335C233.947 85.6781 219.823 100.173 217.365 105.284C211.853 116.865 205.475 128.014 198.285 138.635C195.856 142.273 193.232 142.79 191.633 144.097C189.292 146.048 188.092 148.048 184.092 151.15C177.372 156.378 171.714 151.511 175.401 141.454C179.088 131.397 185.858 117.419 185.858 117.419C185.858 117.419 187.555 110.347 180.639 104.221" stroke="#263238" stroke-miterlimit="10" stroke-linecap="round"/>
<path d="M176.881 147.716L178.715 143.893C178.715 143.893 178.979 144.234 182.207 145.561C184.131 146.356 186.225 146.651 188.294 146.419C188.294 146.419 183.641 153.754 180.003 153.296C179.096 153.21 178.244 152.822 177.584 152.194C177.015 151.613 176.642 150.87 176.516 150.067C176.39 149.265 176.518 148.443 176.881 147.716Z" fill="white" stroke="#263238" stroke-miterlimit="10" stroke-linecap="round"/>
<path d="M203.864 1.01951L196.109 51.3816C196.109 51.3816 205.464 59.6046 217.891 61.8188C230.318 64.0331 253.007 67.3886 253.007 67.3886L272.867 1" fill="#263238"/>
<path d="M203.864 1.01951L196.109 51.3816C196.109 51.3816 205.464 59.6046 217.891 61.8188C230.318 64.0331 253.007 67.3886 253.007 67.3886L272.867 1" stroke="#263238" stroke-miterlimit="10" stroke-linecap="round"/>
<path d="M249.007 56.132C249.007 56.8901 248.782 57.6313 248.361 58.2617C247.94 58.8921 247.341 59.3835 246.64 59.6736C245.94 59.9638 245.169 60.0397 244.425 59.8918C243.682 59.7439 242.999 59.3788 242.463 58.8426C241.927 58.3065 241.561 57.6235 241.414 56.8798C241.266 56.1362 241.341 55.3654 241.632 54.6649C241.922 53.9645 242.413 53.3657 243.044 52.9445C243.674 52.5233 244.415 52.2985 245.173 52.2985C246.19 52.2985 247.165 52.7023 247.884 53.4213C248.603 54.1402 249.007 55.1152 249.007 56.132Z" fill="white" stroke="#263238" stroke-width="2" stroke-linecap="round" stroke-linejoin="round"/>
<path d="M185.378 135.279L184.725 134.616" stroke="#263238" stroke-miterlimit="10" stroke-linecap="round"/>
<path d="M194.313 139.093C194.313 139.093 191.543 140.595 186.676 136.469" stroke="#263238" stroke-miterlimit="10" stroke-linecap="round"/>
<path d="M188.412 135.075C188.412 135.075 189.719 134.616 193.797 137.025" stroke="#263238" stroke-miterlimit="10" stroke-linecap="round"/>
<path d="M185.242 137.786C186.859 139.299 188.801 140.42 190.919 141.064" stroke="#263238" stroke-miterlimit="10" stroke-linecap="round"/>
<path d="M188.041 301.943C188.041 301.943 188.928 311.142 190.967 316.946C193.006 322.75 193.123 328.485 187.982 327.5C184.9 326.905 182.881 322.945 182.881 322.945C182.881 322.945 186.851 328.066 184.334 333.275C181.817 338.484 173.214 329.158 173.214 329.158C173.214 329.158 176.706 339.615 173.077 339.722C169.449 339.83 165.927 335.05 163.664 333.343C161.401 331.636 155.529 315.785 152.808 313.776C150.086 311.766 140.205 313.512 136.791 318.048C133.377 322.584 126.451 316.663 136.147 301.924C145.843 287.185 158.358 278.123 166.981 278.942C175.604 279.762 188.041 301.943 188.041 301.943Z" fill="white" stroke="#263238" stroke-miterlimit="10" stroke-linecap="round"/>
<path d="M179.135 319.414L166.142 298.998C166.142 298.998 159.499 291.282 146.711 296.383" stroke="#263238" stroke-miterlimit="10" stroke-linecap="round"/>
<path d="M171.859 322.457L157.589 307.425C157.589 307.425 150.673 301.505 139.65 306.704" stroke="#263238" stroke-miterlimit="10" stroke-linecap="round"/>
<path d="M143.707 318.292L153.891 330.251L124.754 353.798C124.754 353.798 108.835 361.699 102.924 365.776C97.0126 369.854 64.7353 373.96 64.7353 373.96L58.707 336.699C58.707 336.699 77.5721 332.436 80.0692 330.056C82.5664 327.676 108.357 297.31 111.742 292.774C115.127 288.239 132.441 284.19 132.441 284.19C132.441 284.19 140.186 281.664 148.838 273.968C157.49 266.272 168.62 268.817 172.814 272.69C177.009 276.563 188.421 287.322 190.675 294.676C192.928 302.031 194.04 310.02 188.48 307.962C179.242 304.538 174.492 285.215 163.313 287.663C158.202 288.785 144.429 300.344 142.615 301.826C142.615 301.826 138.381 312.147 143.707 318.292Z" fill="white"/>
<path d="M143.707 318.292L153.891 330.251L124.754 353.798C124.754 353.798 108.835 361.699 102.924 365.776C97.0126 369.854 64.7353 373.96 64.7353 373.96L58.707 336.699C58.707 336.699 77.5721 332.436 80.0692 330.056C82.5664 327.676 108.357 297.31 111.742 292.774C115.127 288.239 132.441 284.19 132.441 284.19C132.441 284.19 140.186 281.664 148.838 273.968C157.49 266.272 168.62 268.817 172.814 272.69C177.009 276.563 188.421 287.322 190.675 294.676C192.928 302.031 194.04 310.02 188.48 307.962C179.242 304.538 174.492 285.215 163.313 287.663C158.202 288.785 144.429 300.344 142.615 301.826C142.615 301.826 138.381 312.147 143.707 318.292" stroke="#263238" stroke-miterlimit="10" stroke-linecap="round"/>
<path d="M221.138 310.557C221.12 310.304 221.011 310.066 220.832 309.887C220.653 309.708 220.415 309.599 220.162 309.581L217.333 309.474C217.195 309.469 217.057 309.491 216.927 309.539C216.798 309.587 216.679 309.661 216.577 309.755C216.476 309.849 216.394 309.962 216.336 310.088C216.278 310.214 216.246 310.35 216.241 310.488C216.236 310.627 216.258 310.765 216.306 310.894C216.354 311.024 216.428 311.143 216.522 311.245C216.616 311.346 216.729 311.428 216.855 311.486C216.981 311.543 217.117 311.576 217.255 311.581L220.084 311.688C220.357 311.697 220.622 311.6 220.825 311.419C221.028 311.237 221.154 310.984 221.177 310.713C221.169 310.659 221.156 310.607 221.138 310.557Z" fill="#263238" stroke="#263238" stroke-miterlimit="10" stroke-linecap="round"/>
<path d="M217.879 310.469C217.816 309.895 217.549 309.362 217.127 308.968C216.704 308.574 216.154 308.345 215.577 308.323L207.51 306.938L122.178 301.446C121.437 301.417 120.696 301.535 120 301.792C119.304 302.049 118.665 302.441 118.12 302.945C117.575 303.449 117.135 304.056 116.825 304.73C116.514 305.404 116.34 306.133 116.311 306.874C116.282 307.616 116.4 308.356 116.657 309.052C116.914 309.749 117.306 310.387 117.81 310.932C118.314 311.477 118.92 311.917 119.595 312.228C120.269 312.538 120.998 312.713 121.739 312.742L207.9 313.639L215.391 313.132C216.029 313.156 216.65 312.926 217.118 312.492C217.586 312.059 217.863 311.457 217.889 310.82C217.895 310.703 217.892 310.585 217.879 310.469Z" fill="#2091F9" stroke="#263238" stroke-miterlimit="10" stroke-linecap="round"/>
<path d="M122.18 301.446L146.8 303.036C147.795 304.362 148.341 305.97 148.361 307.627C148.38 309.285 147.871 310.905 146.908 312.254C146.703 312.512 146.485 312.76 146.254 312.995L121.77 312.742C121.029 312.713 120.3 312.538 119.626 312.228C118.952 311.917 118.345 311.477 117.841 310.932C117.337 310.387 116.945 309.749 116.688 309.052C116.431 308.356 116.313 307.616 116.342 306.874C116.371 306.133 116.546 305.404 116.856 304.73C117.167 304.056 117.607 303.449 118.152 302.945C118.696 302.441 119.335 302.049 120.031 301.792C120.728 301.535 121.468 301.417 122.209 301.446H122.18Z" fill="#263238" stroke="#263238" stroke-miterlimit="10" stroke-linecap="round"/>
<path d="M102.924 365.776C113.381 362.284 133.748 348.482 139.201 346.902C144.653 345.321 157.997 342.805 166.874 336.699C175.75 330.592 182.413 325.442 187.543 318.633C192.674 311.825 187.719 306.255 177.711 310.088C167.703 313.922 153.803 320.935 153.803 320.935C153.803 320.935 146.76 322.73 140.527 315.902" fill="white"/>
<path d="M102.924 365.776C113.381 362.284 133.748 348.482 139.201 346.902C144.653 345.321 157.997 342.805 166.874 336.699C175.75 330.592 182.413 325.442 187.543 318.633C192.674 311.825 187.719 306.255 177.711 310.088C167.703 313.922 153.803 320.935 153.803 320.935C153.803 320.935 146.76 322.73 140.527 315.902" stroke="#263238" stroke-miterlimit="10" stroke-linecap="round"/>
<path d="M184.003 311.532L180.199 313.415C180.199 313.415 180.55 313.678 181.926 316.877C182.76 318.791 183.095 320.885 182.901 322.964C182.901 322.964 190.168 318.204 189.651 314.566C189.551 313.659 189.153 312.812 188.52 312.156C187.927 311.592 187.173 311.228 186.362 311.116C185.552 311.004 184.727 311.149 184.003 311.532Z" fill="white" stroke="#263238" stroke-miterlimit="10" stroke-linecap="round"/>
<path d="M78.0496 328.671C78.0496 328.671 87.3748 341.283 88.9062 352.208C89.862 359.522 90.3637 366.887 90.4084 374.263L61.9353 381.091C61.9353 381.091 60.6477 363.377 58.1115 353.779C56.3257 347.32 54.1098 340.988 51.4785 334.826L78.0496 328.671Z" fill="white" stroke="#263238" stroke-miterlimit="10" stroke-linecap="round"/>
<path d="M79.3475 350.677C76.8114 338.308 68.3738 329.149 68.3738 329.149L1 339.878V415.963L80.7131 383.081C80.7131 383.081 81.8739 363.045 79.3475 350.677Z" fill="#545454" stroke="#263238" stroke-miterlimit="10" stroke-linecap="round"/>
<path d="M61.2934 383.715C61.3049 384.31 61.1383 384.895 60.8148 385.395C60.4913 385.894 60.0258 386.286 59.4781 386.519C58.9303 386.752 58.3254 386.816 57.741 386.703C57.1566 386.59 56.6194 386.304 56.1985 385.883C55.7775 385.462 55.4921 384.925 55.3788 384.341C55.2655 383.756 55.3295 383.151 55.5627 382.604C55.7958 382.056 56.1874 381.59 56.6871 381.267C57.1868 380.944 57.7719 380.777 58.367 380.788C59.1385 380.803 59.8741 381.117 60.4197 381.662C60.9653 382.208 61.2784 382.943 61.2934 383.715Z" fill="white"/>
<path d="M69.6611 380.164C69.6592 380.754 69.4825 381.33 69.1533 381.82C68.8242 382.309 68.3573 382.69 67.8118 382.915C67.2662 383.139 66.6663 383.197 66.088 383.081C65.5096 382.964 64.9787 382.679 64.5622 382.262C64.1457 381.844 63.8624 381.312 63.7481 380.733C63.6337 380.154 63.6933 379.555 63.9195 379.01C64.1457 378.465 64.5283 377.999 65.019 377.672C65.5096 377.344 66.0863 377.17 66.6762 377.17C67.069 377.17 67.458 377.247 67.8208 377.398C68.1835 377.548 68.513 377.769 68.7903 378.047C69.0676 378.325 69.2873 378.656 69.4367 379.019C69.5861 379.382 69.6624 379.771 69.6611 380.164Z" fill="white"/>
<path d="M165.079 323.13L164.416 322.486" stroke="#263238" stroke-miterlimit="10" stroke-linecap="round"/>
<path d="M169.028 332.016C169.028 332.016 170.491 329.217 166.287 324.408" stroke="#263238" stroke-miterlimit="10" stroke-linecap="round"/>
<path d="M164.933 326.164C164.933 326.164 164.484 327.481 166.932 331.519" stroke="#263238" stroke-miterlimit="10" stroke-linecap="round"/>
<path d="M167.615 322.954C169.156 324.55 170.308 326.479 170.981 328.593" stroke="#263238" stroke-miterlimit="10" stroke-linecap="round"/>
</svg>
