<svg width="476" height="358" viewBox="0 0 476 358" fill="none" xmlns="http://www.w3.org/2000/svg">
<path d="M172.63 229.767C201.565 231.203 238.141 260.072 264.031 226.037C285.744 197.492 275.011 168.528 307.705 148.014C331.492 133.028 370.665 106.681 346.792 77.3274C328.114 54.3677 292.309 47.0222 262.29 51.1897C238.702 54.4724 187.73 69.6297 175.209 98.9073C161.146 131.81 196.322 160.469 149.052 171.526C120.602 178.186 83.9411 196.36 93.6368 236.551C97.4428 252.422 108.709 250.034 121.382 244.239C140.098 235.675 152.725 228.787 172.63 229.767Z" fill="#407BFF"/>
<path opacity="0.9" d="M172.63 229.767C201.565 231.203 238.141 260.072 264.031 226.037C285.744 197.492 275.011 168.528 307.705 148.014C331.492 133.028 370.665 106.681 346.792 77.3274C328.114 54.3677 292.309 47.0222 262.29 51.1897C238.702 54.4724 187.73 69.6297 175.209 98.9073C161.146 131.81 196.322 160.469 149.052 171.526C120.602 178.186 83.9411 196.36 93.6368 236.551C97.4428 252.422 108.709 250.034 121.382 244.239C140.098 235.675 152.725 228.787 172.63 229.767Z" fill="white"/>
<path d="M237.874 358C339.763 358 422.36 353.178 422.36 347.229C422.36 341.28 339.763 336.458 237.874 336.458C135.986 336.458 53.3887 341.28 53.3887 347.229C53.3887 353.178 135.986 358 237.874 358Z" fill="#F5F5F5"/>
<path d="M272.394 78.2313C290.206 72.1512 302.576 60.3336 303.623 45.9375C305.269 23.2728 278.227 2.83468 243.221 0.265636C208.216 -2.30341 178.52 14.0528 176.864 36.727C175.522 55.2336 193.296 72.2464 218.911 79.2494C212.25 86.6711 201.337 89.4019 201.337 89.4019C201.337 89.4019 222.184 88.1935 229.463 81.533C232.013 81.9231 234.61 82.2276 237.265 82.4179C245.959 83.0776 254.702 82.5172 263.241 80.7528C269.854 87.7463 286.943 92.4181 286.943 92.4181C286.943 92.4181 276.514 87.242 272.394 78.2313Z" fill="white"/>
<path opacity="0.3" d="M272.394 78.2313C290.206 72.1512 302.576 60.3336 303.623 45.9375C305.269 23.2728 278.227 2.83468 243.221 0.265636C208.216 -2.30341 178.52 14.0528 176.864 36.727C175.522 55.2336 193.296 72.2464 218.911 79.2494C212.25 86.6711 201.337 89.4019 201.337 89.4019C201.337 89.4019 222.184 88.1935 229.463 81.533C232.013 81.9231 234.61 82.2276 237.265 82.4179C245.959 83.0776 254.702 82.5172 263.241 80.7528C269.854 87.7463 286.943 92.4181 286.943 92.4181C286.943 92.4181 276.514 87.242 272.394 78.2313Z" fill="#407BFF"/>
<path d="M277.839 61.3232L270.322 61.9322C270.796 63.0364 271.026 64.2305 270.993 65.432C270.961 66.6335 270.668 67.8136 270.135 68.8907C269.601 69.9678 268.84 70.9162 267.904 71.6702C266.968 72.4243 265.88 72.9659 264.714 73.2578C263.548 73.5496 262.332 73.5846 261.152 73.3605C259.971 73.1363 258.853 72.6582 257.875 71.9593C256.897 71.2605 256.083 70.3575 255.488 69.3129C254.894 68.2683 254.533 67.1071 254.432 65.9094C254.358 65.0023 254.435 64.0891 254.66 63.2072L241.948 64.2443L240.911 51.5228C242.922 52.0585 245.063 51.7781 246.867 50.7426C248.295 49.9491 249.463 48.7601 250.231 47.3186C250.999 45.8771 251.335 44.2443 251.197 42.6168C251.066 41.3147 250.629 40.0622 249.921 38.9616C249.213 37.861 248.255 36.9436 247.124 36.2846C245.994 35.6256 244.723 35.2437 243.417 35.1701C242.11 35.0965 240.805 35.3333 239.607 35.8612L238.57 23.1492L251.292 22.112C250.785 20.9697 250.551 19.7256 250.607 18.4773C250.705 16.4667 251.523 14.5586 252.912 13.1015C254.301 11.6445 256.168 10.7359 258.171 10.5418C259.491 10.4235 260.819 10.6231 262.046 11.1241C263.272 11.625 264.36 12.4127 265.22 13.421C266.079 14.4293 266.684 15.6289 266.984 16.9193C267.284 18.2096 267.27 19.5531 266.944 20.837L274.47 20.2281C275.845 20.1174 277.207 20.5559 278.26 21.4476C279.312 22.3392 279.968 23.6113 280.084 24.9855L282.596 55.7189C282.707 57.0926 282.268 58.454 281.376 59.5046C280.484 60.5552 279.212 61.2092 277.839 61.3232Z" fill="#FFDE59"/>
<path d="M243.204 35.1856C241.968 35.14 240.739 35.3742 239.607 35.8707L238.57 23.1587L225.867 24.1863C226.262 25.0895 226.491 26.0564 226.543 27.0408C226.612 29.1923 225.843 31.2866 224.398 32.8822C222.953 34.4779 220.945 35.4504 218.798 35.5947C216.65 35.7391 214.53 35.044 212.884 33.656C211.239 32.268 210.197 30.2954 209.977 28.154C209.901 27.2474 209.974 26.3343 210.196 25.4518L202.679 26.0702C201.999 26.1255 201.336 26.3143 200.728 26.6259C200.121 26.9375 199.581 27.3658 199.139 27.8863C198.697 28.4068 198.362 29.0093 198.153 29.6593C197.944 30.3093 197.866 30.9941 197.922 31.6746L200.415 62.3889C200.531 63.7631 201.187 65.0352 202.239 65.9269C203.291 66.8185 204.654 67.257 206.029 67.1464L213.555 66.5279C213.135 68.1521 213.224 69.8662 213.812 71.4376C214.203 72.4687 214.796 73.4114 215.557 74.2106C216.317 75.0098 217.229 75.6494 218.239 76.092C219.249 76.5347 220.337 76.7715 221.44 76.7885C222.543 76.8056 223.638 76.6026 224.661 76.1915C225.685 75.7803 226.616 75.1693 227.401 74.394C228.185 73.6187 228.807 72.6949 229.23 71.6763C229.654 70.6579 229.87 69.5652 229.866 68.4623C229.862 67.3593 229.638 66.2683 229.207 65.2529L241.929 64.2253L240.891 51.5038C241.773 51.7289 242.686 51.8061 243.594 51.7321C245.789 51.555 247.824 50.5133 249.251 48.8361C250.679 47.1589 251.382 44.9834 251.206 42.788C251.015 40.7682 250.099 38.8858 248.628 37.4884C247.157 36.091 245.23 35.2731 243.204 35.1856Z" fill="#407BFF"/>
<path d="M227.284 9.60935C226.543 8.90609 225.758 8.25136 224.934 7.64927L225.543 6.79292C226.411 7.41907 227.235 8.10586 228.007 8.84816L227.284 9.60935Z" fill="#545454"/>
<path d="M233.641 18.3536C232.735 16.2435 231.509 14.2858 230.006 12.5495L230.815 11.8834C232.389 13.7124 233.673 15.7727 234.621 17.992L233.641 18.3536Z" fill="#407BFF"/>
<path d="M240.654 16.1556H239.607C239.636 11.9495 241.13 7.88479 243.832 4.66156L244.641 5.33712C242.095 8.37055 240.686 12.1958 240.654 16.1556Z" fill="#545454"/>
<path d="M235.657 11.2459C235.657 11.1983 234.543 6.02218 232.479 2.93933L233.344 2.3494C235.533 5.60352 236.637 10.8177 236.684 11.0366L235.657 11.2459Z" fill="#407BFF"/>
<path d="M250.244 78.4597C249.451 77.74 248.707 76.9675 248.018 76.1475L248.817 75.472C249.479 76.2498 250.191 76.984 250.948 77.6699L250.244 78.4597Z" fill="#545454"/>
<path d="M246.562 74.511C244.897 72.3127 243.637 69.8349 242.842 67.194L243.86 66.9275C244.617 69.4478 245.812 71.815 247.39 73.921L246.562 74.511Z" fill="#407BFF"/>
<path d="M239.539 73.6832C239.117 71.5167 239.39 69.272 240.32 67.2701L241.271 67.7363C240.468 69.5253 240.225 71.5158 240.577 73.4453L239.539 73.6832Z" fill="#407BFF"/>
<path d="M174.201 259.663C168.083 225.514 165.533 184.342 165.533 184.342L198.141 183.828C198.141 183.828 195.353 239.32 194.002 262.565C192.603 286.723 191.623 333.233 191.623 333.233H180.377C180.377 333.233 170.804 289.54 174.201 259.663Z" fill="#545454"/>
<path opacity="0.2" d="M180.787 193.638C180.787 193.638 176.362 226.789 172.728 251.09C169.502 230.661 167.456 209.224 166.391 196.293L180.787 193.638Z" fill="black"/>
<path d="M206.733 344.65C206.733 344.65 191.633 341.101 190.967 335.954L181.337 337.2L180.281 347.229H184.259L184.896 345.983L186.228 347.229C199.739 347.229 204.744 347.086 207.247 346.278C207.326 345.986 207.319 345.677 207.228 345.389C207.137 345.1 206.965 344.844 206.733 344.65Z" fill="#545454"/>
<path d="M179.967 339.018C183.582 339.227 190.804 338.694 192.212 338C193.621 337.305 192.783 331.701 192.783 331.701C192.783 331.701 180.157 330.445 179.044 331.139C177.931 331.834 179.967 339.018 179.967 339.018Z" fill="#407BFF"/>
<path opacity="0.3" d="M179.967 339.018C183.582 339.227 190.804 338.694 192.212 338C193.621 337.305 192.783 331.701 192.783 331.701C192.783 331.701 180.157 330.445 179.044 331.139C177.931 331.834 179.967 339.018 179.967 339.018Z" fill="white"/>
<path d="M143.926 258.692C149.493 224.353 149.312 201.412 154.878 184.475L186.706 184.038C186.706 184.038 171.272 238.53 164.288 261.214C157.304 283.897 144.516 333.233 144.516 333.233H134.164C134.164 333.233 134.621 285.258 143.926 258.692Z" fill="#545454"/>
<path d="M155.362 344.65C155.362 344.65 143.944 341.101 143.307 335.954L133.678 337.2L132.631 347.229H135.114L135.752 345.983L137.084 347.229C150.595 347.229 153.374 347.086 155.876 346.278C155.955 345.986 155.949 345.677 155.858 345.389C155.767 345.1 155.595 344.844 155.362 344.65Z" fill="#545454"/>
<path d="M132.63 338.77C134.847 339.227 143.249 338.694 144.752 338C146.256 337.305 145.789 331.425 145.789 331.425C145.789 331.425 134.371 330.064 133.144 330.759C131.916 331.453 132.63 338.77 132.63 338.77Z" fill="#407BFF"/>
<path opacity="0.3" d="M132.63 338.77C134.847 339.227 143.249 338.694 144.752 338C146.256 337.305 145.789 331.425 145.789 331.425C145.789 331.425 134.371 330.064 133.144 330.759C131.916 331.453 132.63 338.77 132.63 338.77Z" fill="white"/>
<path d="M197.97 123.894L200.701 126.244L203.555 128.623C205.458 130.212 207.361 131.734 209.264 133.218C210.216 133.951 211.167 134.665 212.119 135.34C213.07 136.016 214.022 136.682 214.926 137.243C215.83 137.805 216.772 138.366 217.609 138.823C218.259 139.171 218.933 139.473 219.626 139.727L218.323 139.631C218.142 139.717 218.599 139.727 219.179 139.631C219.897 139.445 220.597 139.197 221.272 138.889C222.956 138.125 224.59 137.254 226.163 136.282C227.857 135.331 229.55 134.189 231.253 133.057L236.372 129.631L236.496 129.555C237.222 129.09 238.085 128.886 238.943 128.975C239.8 129.065 240.602 129.443 241.217 130.048C241.832 130.652 242.223 131.448 242.326 132.304C242.43 133.16 242.239 134.026 241.786 134.76C240.547 136.645 239.204 138.458 237.762 140.193C236.312 141.946 234.768 143.62 233.137 145.207C231.409 146.897 229.541 148.438 227.552 149.812C226.409 150.602 225.199 151.289 223.936 151.868C222.266 152.659 220.462 153.13 218.618 153.257C218.333 153.286 218.046 153.286 217.761 153.257L217.314 153.19C215.484 152.909 213.693 152.418 211.976 151.725C210.537 151.158 209.133 150.507 207.77 149.774C205.255 148.437 202.824 146.947 200.492 145.312C198.208 143.742 196.048 142.077 193.945 140.374C192.899 139.508 191.852 138.651 190.843 137.747C189.835 136.844 188.864 135.968 187.799 134.941C186.382 133.583 185.552 131.726 185.485 129.765C185.418 127.805 186.119 125.895 187.439 124.444C188.759 122.992 190.593 122.114 192.551 121.995C194.51 121.876 196.437 122.527 197.922 123.808L197.97 123.894Z" fill="#CF7A64"/>
<path d="M237.675 136.482L246.106 136.415L243.194 126.729C243.194 126.729 235.582 127.681 235.439 131.858L237.675 136.482Z" fill="#CE7A63"/>
<path d="M252.301 130.212L250.703 126.996C250.396 126.374 249.879 125.881 249.243 125.605C248.606 125.33 247.893 125.29 247.23 125.492L243.195 126.729L246.107 136.415L250.921 134.16C251.274 133.994 251.59 133.76 251.85 133.471C252.111 133.181 252.311 132.843 252.44 132.475C252.568 132.108 252.622 131.718 252.598 131.33C252.575 130.941 252.474 130.561 252.301 130.212Z" fill="#CE7A63"/>
<path d="M190.244 118.718C187.196 121.01 185.092 124.339 184.331 128.077C183.57 131.815 184.205 135.702 186.115 139.003C186.638 139.952 187.295 140.82 188.065 141.582C191.405 144.75 199.683 147.548 205.116 149.908C212.034 147.443 215.583 140.117 214.527 136.054C209.265 129.079 199.655 118.86 194.669 117.509C193.156 117.09 191.7 117.69 190.244 118.718Z" fill="#545454"/>
<path d="M159.775 115.968C169.514 114.893 179.338 114.83 189.09 115.777C193.103 116.201 196.816 118.099 199.511 121.103C202.205 124.107 203.69 128.003 203.677 132.038C203.629 147.034 201.222 163.6 198.729 186.635C191.631 193.971 153.552 186.34 153.552 186.34C153.952 177.981 154.982 169.663 156.635 161.459C155.341 151.944 152.049 141.097 150.193 128.489C149.983 127.036 150.066 125.555 150.436 124.134C150.807 122.712 151.457 121.379 152.35 120.213C153.242 119.047 154.359 118.07 155.634 117.341C156.909 116.612 158.317 116.145 159.775 115.968Z" fill="#407BFF"/>
<g opacity="0.2">
<path opacity="0.2" d="M158.158 131.962C158.094 131.962 158.033 131.938 157.987 131.893C157.941 131.849 157.913 131.788 157.911 131.724C157.908 131.691 157.912 131.658 157.923 131.626C157.934 131.595 157.951 131.565 157.973 131.54C157.995 131.516 158.022 131.495 158.052 131.481C158.083 131.467 158.115 131.459 158.149 131.458C160.042 131.349 161.849 130.628 163.296 129.403C163.019 129.276 162.775 129.087 162.583 128.851C162.345 128.531 162.176 128.165 162.088 127.776C161.527 125.73 162.031 123.018 164.058 121.934C164.393 121.704 164.796 121.594 165.202 121.621C165.608 121.649 165.992 121.813 166.294 122.086C166.487 122.345 166.612 122.65 166.655 122.971C166.836 124.276 166.61 125.605 166.008 126.777C165.574 127.663 164.995 128.47 164.295 129.165H164.467C165.214 129.202 165.961 129.071 166.651 128.781C167.341 128.491 167.957 128.05 168.453 127.49C169.454 126.337 170.043 124.885 170.128 123.361C170.129 123.328 170.137 123.295 170.151 123.266C170.166 123.236 170.186 123.209 170.211 123.188C170.236 123.166 170.265 123.15 170.297 123.141C170.329 123.131 170.362 123.128 170.395 123.132C170.461 123.137 170.523 123.168 170.567 123.218C170.612 123.267 170.635 123.332 170.632 123.399C170.536 125.036 169.9 126.595 168.825 127.833C168.279 128.452 167.599 128.938 166.838 129.257C166.076 129.575 165.253 129.716 164.429 129.669C164.233 129.65 164.039 129.618 163.848 129.574C162.267 130.985 160.255 131.82 158.139 131.943L158.158 131.962ZM165.209 122.124C164.891 122.135 164.581 122.223 164.305 122.381C162.516 123.332 162.078 125.835 162.573 127.652C162.644 127.968 162.78 128.266 162.973 128.527C163.17 128.764 163.431 128.94 163.725 129.032C164.478 128.324 165.097 127.486 165.551 126.558C166.108 125.48 166.32 124.258 166.16 123.056C166.134 122.823 166.049 122.601 165.913 122.409C165.828 122.304 165.721 122.22 165.599 122.162C165.477 122.104 165.344 122.075 165.209 122.076V122.124Z" fill="white"/>
<path opacity="0.2" d="M179.471 141.373H179.386C177.843 140.823 176.525 139.78 175.637 138.404C175.191 137.704 174.911 136.912 174.817 136.088C174.723 135.263 174.818 134.429 175.094 133.646C175.168 133.463 175.254 133.285 175.351 133.114C174.438 131.214 174.193 129.061 174.657 127.005C174.679 126.948 174.722 126.901 174.776 126.873C174.83 126.844 174.893 126.836 174.953 126.85C175.013 126.864 175.066 126.899 175.102 126.948C175.138 126.997 175.156 127.058 175.151 127.119C174.73 128.971 174.917 130.91 175.684 132.647C175.883 132.413 176.134 132.227 176.417 132.105C176.787 131.965 177.183 131.906 177.578 131.934C179.709 131.934 182.126 133.19 182.64 135.454C182.767 135.839 182.761 136.256 182.623 136.638C182.485 137.019 182.223 137.343 181.878 137.557C181.575 137.673 181.248 137.709 180.927 137.662C179.625 137.468 178.413 136.88 177.454 135.978C176.722 135.315 176.108 134.533 175.637 133.666C175.637 133.723 175.589 133.78 175.57 133.827C175.327 134.534 175.246 135.286 175.332 136.029C175.417 136.771 175.668 137.485 176.065 138.119C176.888 139.402 178.117 140.374 179.557 140.878C179.588 140.888 179.618 140.905 179.643 140.928C179.668 140.95 179.688 140.977 179.702 141.007C179.716 141.037 179.724 141.07 179.725 141.104C179.727 141.137 179.721 141.17 179.709 141.201C179.693 141.252 179.661 141.295 179.618 141.326C179.575 141.357 179.524 141.373 179.471 141.373ZM175.922 133.161C176.402 134.085 177.047 134.914 177.825 135.607C178.702 136.447 179.82 136.992 181.022 137.167C181.251 137.209 181.488 137.189 181.707 137.11C182.202 136.891 182.326 136.158 182.183 135.578C181.736 133.589 179.49 132.476 177.606 132.438C177.283 132.42 176.959 132.469 176.655 132.581C176.358 132.697 176.103 132.899 175.922 133.161Z" fill="white"/>
<path opacity="0.2" d="M198.949 135.159C198.753 135.168 198.558 135.133 198.377 135.058C198.196 134.982 198.034 134.867 197.903 134.722C197.698 134.47 197.566 134.167 197.522 133.846C197.304 132.551 197.497 131.22 198.074 130.04C198.486 129.144 199.042 128.321 199.72 127.604H199.549C198.802 127.589 198.061 127.739 197.38 128.045C196.698 128.352 196.094 128.805 195.61 129.374C194.637 130.554 194.085 132.023 194.04 133.551C194.035 133.618 194.004 133.68 193.955 133.724C193.905 133.769 193.84 133.792 193.773 133.789C193.707 133.784 193.645 133.754 193.6 133.704C193.556 133.654 193.533 133.589 193.535 133.523C193.587 131.885 194.183 130.312 195.229 129.051C195.763 128.425 196.431 127.929 197.184 127.599C197.938 127.27 198.756 127.115 199.577 127.148C199.776 127.156 199.973 127.182 200.167 127.224C201.701 125.777 203.68 124.895 205.781 124.721C205.814 124.717 205.847 124.72 205.879 124.73C205.91 124.739 205.94 124.756 205.965 124.777C205.99 124.798 206.01 124.825 206.024 124.855C206.039 124.884 206.046 124.917 206.048 124.95C206.05 125.015 206.028 125.079 205.986 125.128C205.944 125.178 205.884 125.209 205.819 125.216C203.926 125.38 202.135 126.147 200.71 127.405C200.997 127.519 201.251 127.702 201.452 127.938C201.694 128.25 201.869 128.61 201.966 128.994C202.575 131.03 202.137 133.704 200.139 134.883C199.771 135.073 199.363 135.167 198.949 135.159ZM200.301 127.719C199.564 128.442 198.964 129.293 198.531 130.231C198.002 131.323 197.819 132.552 198.007 133.751C198.047 133.981 198.138 134.199 198.274 134.389C198.506 134.562 198.788 134.656 199.078 134.656C199.368 134.656 199.65 134.562 199.882 134.389C201.642 133.361 202.023 130.887 201.49 129.079C201.41 128.763 201.267 128.465 201.071 128.204C200.865 127.973 200.598 127.805 200.301 127.719Z" fill="white"/>
<path opacity="0.2" d="M189.167 130.154H189.119C189.054 130.141 188.997 130.102 188.96 130.047C188.923 129.992 188.908 129.925 188.919 129.86C189.292 127.999 189.058 126.068 188.253 124.35C188.055 124.584 187.808 124.773 187.53 124.902C187.163 125.054 186.767 125.125 186.369 125.112C184.247 125.112 181.821 123.941 181.26 121.705C181.121 121.323 181.117 120.905 181.246 120.52C181.376 120.134 181.632 119.804 181.973 119.583C182.275 119.462 182.602 119.419 182.925 119.46C184.234 119.617 185.461 120.179 186.436 121.068C187.191 121.709 187.834 122.471 188.339 123.323L188.396 123.161C188.624 122.448 188.688 121.693 188.585 120.952C188.481 120.211 188.211 119.502 187.797 118.879C186.937 117.619 185.681 116.682 184.228 116.215C184.166 116.191 184.115 116.145 184.087 116.084C184.058 116.024 184.055 115.955 184.076 115.892C184.087 115.86 184.104 115.831 184.126 115.806C184.148 115.781 184.175 115.761 184.205 115.746C184.236 115.732 184.268 115.724 184.302 115.723C184.335 115.722 184.369 115.727 184.4 115.739C185.951 116.241 187.29 117.245 188.206 118.594C188.673 119.283 188.975 120.071 189.089 120.896C189.203 121.721 189.125 122.561 188.862 123.351C188.797 123.535 188.718 123.713 188.624 123.884C189.584 125.764 189.879 127.914 189.462 129.983C189.44 130.042 189.399 130.091 189.345 130.122C189.291 130.154 189.228 130.165 189.167 130.154ZM182.63 119.945C182.467 119.94 182.305 119.969 182.154 120.031C181.669 120.259 181.564 120.982 181.716 121.572C182.211 123.542 184.466 124.598 186.341 124.598C186.666 124.614 186.991 124.559 187.292 124.436C187.573 124.306 187.811 124.098 187.977 123.837C187.492 122.929 186.848 122.117 186.074 121.439C185.179 120.621 184.052 120.103 182.849 119.954L182.63 119.945Z" fill="white"/>
<path opacity="0.2" d="M162.278 157.653C162.22 157.641 162.167 157.61 162.129 157.564C162.091 157.518 162.07 157.46 162.07 157.401C162.07 157.341 162.091 157.283 162.129 157.237C162.167 157.191 162.22 157.16 162.278 157.148C164.174 157.038 165.983 156.317 167.435 155.093C167.155 154.967 166.908 154.778 166.712 154.541C166.475 154.224 166.306 153.861 166.217 153.476C165.656 151.42 166.16 148.718 168.196 147.633C168.528 147.4 168.93 147.287 169.335 147.313C169.74 147.338 170.124 147.502 170.423 147.776C170.617 148.036 170.741 148.34 170.784 148.661C170.965 149.966 170.739 151.295 170.137 152.467C169.699 153.335 169.116 154.124 168.415 154.798H168.586C169.334 154.836 170.08 154.705 170.77 154.415C171.46 154.125 172.077 153.684 172.573 153.124C173.575 151.972 174.165 150.519 174.248 148.994C174.249 148.961 174.257 148.929 174.271 148.899C174.285 148.869 174.306 148.843 174.331 148.821C174.356 148.8 174.385 148.784 174.417 148.774C174.448 148.765 174.481 148.762 174.514 148.766C174.581 148.771 174.643 148.801 174.687 148.851C174.731 148.901 174.755 148.966 174.752 149.032C174.657 150.67 174.021 152.229 172.944 153.466C172.398 154.085 171.719 154.572 170.958 154.89C170.196 155.208 169.372 155.349 168.548 155.303C168.353 155.282 168.159 155.251 167.968 155.207C166.387 156.619 164.375 157.454 162.259 157.577L162.278 157.653ZM169.367 147.805C169.034 147.805 168.706 147.89 168.415 148.052C166.626 149.004 166.189 151.506 166.683 153.323C166.755 153.64 166.891 153.938 167.083 154.199C167.28 154.436 167.541 154.611 167.835 154.703C168.589 153.997 169.209 153.158 169.662 152.229C170.218 151.152 170.43 149.93 170.271 148.728C170.244 148.495 170.159 148.272 170.023 148.081C169.938 147.992 169.837 147.922 169.724 147.875C169.611 147.827 169.489 147.803 169.367 147.805Z" fill="white"/>
<path opacity="0.2" d="M184.162 168.119H184.067C182.526 167.567 181.209 166.524 180.318 165.151C179.872 164.451 179.592 163.658 179.499 162.834C179.407 162.009 179.505 161.174 179.785 160.393C179.856 160.21 179.938 160.032 180.033 159.86C179.122 157.96 178.881 155.807 179.348 153.752C179.355 153.72 179.369 153.689 179.389 153.663C179.409 153.636 179.433 153.614 179.462 153.597C179.49 153.58 179.522 153.569 179.554 153.565C179.587 153.56 179.62 153.562 179.652 153.571C179.684 153.577 179.714 153.591 179.74 153.609C179.767 153.628 179.789 153.652 179.806 153.679C179.823 153.707 179.834 153.738 179.839 153.77C179.843 153.802 179.841 153.835 179.833 153.866C179.416 155.719 179.606 157.657 180.375 159.394C180.575 159.16 180.825 158.974 181.108 158.852C181.479 158.715 181.874 158.656 182.269 158.68C184.391 158.68 186.817 159.936 187.331 162.201C187.459 162.587 187.453 163.005 187.313 163.387C187.173 163.769 186.907 164.092 186.56 164.304C186.258 164.425 185.929 164.461 185.608 164.408C184.304 164.221 183.09 163.633 182.136 162.724C181.407 162.059 180.792 161.278 180.318 160.412C180.318 160.469 180.318 160.526 180.252 160.574C180.009 161.281 179.928 162.033 180.013 162.775C180.099 163.518 180.349 164.232 180.746 164.865C181.573 166.15 182.806 167.121 184.248 167.624C184.28 167.635 184.309 167.652 184.333 167.674C184.358 167.697 184.378 167.724 184.391 167.754C184.405 167.785 184.412 167.818 184.411 167.851C184.411 167.885 184.404 167.918 184.391 167.948C184.376 167.997 184.346 168.041 184.305 168.072C184.264 168.103 184.214 168.119 184.162 168.119ZM180.613 159.908C181.087 160.836 181.733 161.666 182.516 162.353C183.392 163.192 184.505 163.74 185.704 163.923C185.937 163.958 186.175 163.935 186.398 163.857C186.893 163.638 187.007 162.905 186.874 162.325C186.427 160.336 184.181 159.223 182.297 159.185C181.974 159.164 181.649 159.212 181.346 159.327C181.05 159.445 180.795 159.647 180.613 159.908Z" fill="white"/>
<path opacity="0.2" d="M166.103 172.772C166.053 172.77 166.005 172.754 165.965 172.725C165.924 172.696 165.893 172.656 165.875 172.61C165.259 171.099 165.159 169.427 165.589 167.853C165.817 167.059 166.223 166.327 166.775 165.712C167.327 165.097 168.011 164.616 168.777 164.304C168.959 164.235 169.147 164.181 169.338 164.142C170.152 162.197 171.596 160.581 173.439 159.556C173.468 159.533 173.503 159.517 173.539 159.509C173.576 159.5 173.613 159.5 173.65 159.508C173.687 159.516 173.721 159.532 173.751 159.554C173.781 159.577 173.805 159.605 173.823 159.638C173.84 159.671 173.85 159.708 173.852 159.745C173.854 159.783 173.848 159.82 173.834 159.855C173.82 159.889 173.799 159.921 173.772 159.946C173.745 159.972 173.712 159.991 173.677 160.003C172.004 160.917 170.67 162.345 169.871 164.075C170.176 164.073 170.478 164.138 170.756 164.266C171.124 164.443 171.449 164.7 171.707 165.017C173.096 166.635 173.791 169.251 172.44 171.145C172.225 171.494 171.899 171.761 171.514 171.903C171.129 172.044 170.708 172.052 170.318 171.925C170.032 171.773 169.79 171.55 169.614 171.278C168.888 170.18 168.522 168.883 168.567 167.567C168.577 166.595 168.747 165.63 169.072 164.713L168.91 164.77C168.224 165.061 167.612 165.502 167.118 166.06C166.624 166.618 166.261 167.279 166.055 167.996C165.652 169.466 165.746 171.028 166.322 172.439C166.334 172.47 166.34 172.502 166.339 172.535C166.339 172.568 166.332 172.601 166.318 172.631C166.305 172.661 166.286 172.688 166.262 172.711C166.238 172.733 166.21 172.751 166.179 172.763L166.103 172.772ZM169.69 164.57C169.314 165.535 169.117 166.56 169.11 167.596C169.064 168.806 169.397 170 170.061 171.012C170.185 171.211 170.359 171.375 170.565 171.488C171.06 171.716 171.669 171.326 172.031 170.831C173.211 169.166 172.554 166.759 171.327 165.322C171.124 165.067 170.872 164.856 170.584 164.703C170.304 164.579 169.995 164.533 169.69 164.57Z" fill="white"/>
<path opacity="0.2" d="M164.923 189.49C163.289 189.411 161.729 188.788 160.489 187.72C159.859 187.182 159.36 186.507 159.03 185.747C158.701 184.987 158.549 184.161 158.586 183.334C158.602 183.138 158.631 182.945 158.672 182.753C157.253 181.174 156.408 179.163 156.274 177.044C156.272 177.011 156.276 176.978 156.287 176.947C156.297 176.916 156.314 176.888 156.337 176.864C156.359 176.839 156.386 176.82 156.416 176.807C156.447 176.794 156.479 176.787 156.512 176.787C156.579 176.785 156.644 176.808 156.693 176.852C156.743 176.897 156.774 176.959 156.778 177.025C156.909 178.916 157.639 180.716 158.862 182.163C158.989 181.883 159.178 181.636 159.414 181.44C159.732 181.202 160.094 181.03 160.48 180.936C162.526 180.374 165.19 180.86 166.332 182.839C166.566 183.172 166.68 183.574 166.656 183.98C166.631 184.386 166.47 184.772 166.198 185.075C165.938 185.268 165.634 185.396 165.313 185.446C164.009 185.629 162.681 185.407 161.507 184.808C160.621 184.383 159.811 183.814 159.11 183.124C159.105 183.181 159.105 183.239 159.11 183.296C159.067 184.054 159.198 184.812 159.491 185.512C159.785 186.213 160.233 186.838 160.803 187.339C161.962 188.333 163.418 188.915 164.942 188.995C164.975 188.996 165.008 189.004 165.037 189.018C165.067 189.033 165.094 189.053 165.115 189.078C165.137 189.103 165.153 189.132 165.162 189.164C165.172 189.195 165.175 189.229 165.171 189.261C165.169 189.293 165.162 189.323 165.149 189.352C165.136 189.38 165.117 189.406 165.094 189.427C165.071 189.448 165.044 189.465 165.015 189.475C164.986 189.486 164.955 189.491 164.923 189.49ZM159.214 182.62C159.928 183.372 160.773 183.987 161.707 184.437C162.787 184.988 164.009 185.194 165.209 185.027C165.442 184.996 165.664 184.907 165.856 184.77C166.265 184.418 166.17 183.695 165.856 183.162C164.857 181.383 162.392 180.955 160.575 181.459C160.257 181.534 159.956 181.67 159.69 181.859C159.484 182.073 159.334 182.334 159.252 182.62H159.214Z" fill="white"/>
<path opacity="0.2" d="M157.054 167.624C155.42 167.538 153.86 166.912 152.62 165.845C151.989 165.308 151.489 164.633 151.16 163.873C150.83 163.112 150.678 162.287 150.717 161.459C150.734 161.264 150.763 161.07 150.802 160.878C149.393 159.312 148.549 157.319 148.404 155.217C148.402 155.15 148.425 155.085 148.47 155.036C148.514 154.986 148.576 154.955 148.642 154.95C148.708 154.95 148.772 154.974 148.821 155.018C148.871 155.062 148.902 155.123 148.909 155.188C149.037 157.082 149.767 158.886 150.993 160.336C151.121 160.055 151.309 159.805 151.544 159.603C151.862 159.366 152.224 159.198 152.61 159.109C154.656 158.538 157.368 159.023 158.462 161.012C158.696 161.344 158.81 161.747 158.786 162.153C158.762 162.559 158.6 162.945 158.329 163.248C158.069 163.441 157.765 163.566 157.444 163.609C156.141 163.8 154.81 163.581 153.638 162.981C152.749 162.555 151.938 161.983 151.24 161.287C151.236 161.344 151.236 161.402 151.24 161.459C151.208 162.206 151.343 162.951 151.636 163.639C151.929 164.327 152.373 164.941 152.934 165.436C154.091 166.43 155.548 167.01 157.073 167.082C157.139 167.087 157.201 167.117 157.245 167.167C157.29 167.217 157.313 167.282 157.311 167.348C157.313 167.384 157.308 167.419 157.297 167.453C157.285 167.486 157.266 167.517 157.242 167.543C157.218 167.568 157.189 167.589 157.157 167.603C157.124 167.617 157.089 167.625 157.054 167.624ZM151.345 160.745C152.056 161.5 152.901 162.117 153.838 162.562C154.915 163.117 156.139 163.323 157.339 163.152C157.574 163.125 157.797 163.037 157.986 162.895C158.395 162.553 158.3 161.83 157.986 161.297C157.035 159.518 154.523 159.089 152.705 159.594C152.389 159.665 152.091 159.801 151.83 159.993C151.619 160.201 151.465 160.46 151.383 160.745H151.345Z" fill="white"/>
<path opacity="0.2" d="M203.068 158.481C202.873 158.488 202.679 158.454 202.498 158.38C202.318 158.306 202.155 158.195 202.022 158.052C201.817 157.801 201.685 157.498 201.641 157.177C201.429 155.882 201.622 154.553 202.193 153.371C202.605 152.477 203.161 151.658 203.839 150.945H203.668C202.921 150.929 202.18 151.08 201.499 151.386C200.817 151.692 200.213 152.146 199.729 152.714C198.756 153.89 198.204 155.357 198.159 156.882C198.157 156.915 198.15 156.948 198.135 156.978C198.121 157.009 198.101 157.036 198.076 157.058C198.051 157.08 198.022 157.097 197.99 157.108C197.959 157.118 197.925 157.123 197.892 157.12C197.827 157.115 197.767 157.086 197.723 157.038C197.679 156.991 197.654 156.928 197.654 156.863C197.704 155.225 198.3 153.651 199.348 152.391C199.879 151.759 200.546 151.255 201.299 150.917C202.052 150.58 202.871 150.416 203.696 150.44C203.895 150.457 204.092 150.486 204.286 150.526C205.821 149.08 207.799 148.195 209.9 148.014C209.933 148.011 209.967 148.016 209.998 148.026C210.03 148.037 210.059 148.054 210.084 148.076C210.109 148.098 210.129 148.125 210.143 148.156C210.157 148.186 210.165 148.219 210.166 148.252C210.169 148.317 210.147 148.381 210.105 148.43C210.062 148.48 210.003 148.511 209.938 148.518C208.048 148.677 206.259 149.441 204.838 150.697C205.119 150.822 205.369 151.007 205.571 151.24C205.817 151.55 205.993 151.91 206.085 152.296C206.694 154.332 206.256 157.006 204.258 158.176C203.894 158.379 203.484 158.484 203.068 158.481ZM204.429 151.04C203.694 151.766 203.097 152.621 202.669 153.561C202.145 154.652 201.963 155.876 202.145 157.072C202.182 157.308 202.277 157.53 202.421 157.719C202.773 158.119 203.496 158.014 204.02 157.719C205.78 156.682 206.161 154.208 205.628 152.41C205.548 152.093 205.405 151.796 205.209 151.535C204.998 151.304 204.728 151.133 204.429 151.04Z" fill="white"/>
<path opacity="0.2" d="M201.861 175.817C201.797 175.815 201.737 175.789 201.692 175.745C201.646 175.701 201.618 175.642 201.613 175.579C201.463 173.687 200.705 171.895 199.453 170.469C199.328 170.75 199.143 171 198.911 171.202C198.599 171.445 198.239 171.62 197.855 171.716C195.819 172.315 193.145 171.868 191.975 169.86C191.737 169.531 191.618 169.13 191.637 168.724C191.656 168.318 191.812 167.93 192.079 167.624C192.331 167.42 192.634 167.288 192.955 167.244C194.252 167.032 195.583 167.232 196.761 167.815C197.655 168.23 198.475 168.789 199.187 169.47C199.187 169.413 199.187 169.356 199.187 169.309C199.207 168.56 199.06 167.817 198.757 167.132C198.454 166.448 198.003 165.839 197.436 165.35C196.259 164.379 194.794 163.821 193.269 163.761C193.203 163.761 193.14 163.735 193.094 163.689C193.047 163.642 193.021 163.58 193.021 163.514C193.021 163.448 193.047 163.385 193.094 163.339C193.14 163.293 193.203 163.267 193.269 163.267C194.907 163.319 196.479 163.922 197.731 164.979C198.36 165.512 198.858 166.182 199.188 166.938C199.518 167.693 199.67 168.514 199.634 169.337C199.625 169.532 199.6 169.727 199.558 169.918C200.995 171.459 201.87 173.441 202.042 175.541C202.044 175.575 202.04 175.609 202.029 175.641C202.019 175.673 202.002 175.703 201.98 175.728C201.958 175.754 201.931 175.775 201.901 175.79C201.87 175.805 201.837 175.814 201.804 175.817H201.861ZM193.935 167.653C193.638 167.649 193.341 167.678 193.05 167.739C192.817 167.768 192.597 167.86 192.412 168.005C192.003 168.357 192.108 169.08 192.412 169.604C193.44 171.373 195.914 171.763 197.712 171.231C198.028 171.154 198.326 171.015 198.588 170.821C198.812 170.614 198.98 170.352 199.073 170.06C198.354 169.313 197.502 168.707 196.561 168.271C195.739 167.883 194.844 167.672 193.935 167.653Z" fill="white"/>
<path opacity="0.2" d="M194.495 189.528C194.319 189.534 194.144 189.504 193.981 189.44C193.817 189.376 193.668 189.28 193.543 189.157C193.322 188.919 193.167 188.627 193.096 188.31C192.807 187.04 192.914 185.712 193.4 184.504C193.747 183.581 194.245 182.722 194.875 181.964H194.704C193.957 181.995 193.227 182.194 192.568 182.547C191.909 182.899 191.338 183.396 190.898 184C190.008 185.239 189.557 186.738 189.613 188.262C189.616 188.296 189.612 188.33 189.6 188.362C189.589 188.393 189.571 188.422 189.548 188.447C189.524 188.471 189.496 188.49 189.465 188.503C189.433 188.515 189.4 188.521 189.366 188.519C189.3 188.519 189.237 188.493 189.191 188.447C189.145 188.4 189.119 188.338 189.119 188.272C189.056 186.635 189.542 185.025 190.498 183.695C190.984 183.029 191.616 182.481 192.344 182.094C193.073 181.706 193.879 181.489 194.704 181.459C194.9 181.446 195.097 181.446 195.294 181.459C196.733 179.925 198.647 178.919 200.727 178.605C200.759 178.6 200.792 178.602 200.824 178.611C200.856 178.619 200.886 178.634 200.912 178.654C200.938 178.674 200.96 178.698 200.976 178.727C200.993 178.755 201.003 178.786 201.008 178.819C201.012 178.851 201.01 178.884 201.002 178.916C200.993 178.948 200.979 178.977 200.959 179.003C200.939 179.03 200.914 179.051 200.886 179.068C200.857 179.084 200.826 179.095 200.794 179.099C198.92 179.39 197.189 180.274 195.855 181.621C196.144 181.726 196.407 181.891 196.626 182.106C196.889 182.406 197.089 182.756 197.216 183.134C197.958 185.122 197.711 187.815 195.789 189.128C195.404 189.383 194.955 189.521 194.495 189.528ZM195.446 182.002C194.759 182.777 194.218 183.67 193.848 184.637C193.39 185.759 193.29 186.996 193.562 188.177C193.612 188.409 193.72 188.626 193.876 188.805C194.12 188.961 194.408 189.033 194.696 189.01C194.984 188.988 195.258 188.872 195.475 188.681C197.159 187.53 197.378 185.037 196.712 183.277C196.616 182.963 196.453 182.675 196.236 182.43C196.02 182.223 195.755 182.076 195.465 182.002H195.446Z" fill="white"/>
<path opacity="0.2" d="M174.676 192.792C174.624 192.791 174.574 192.776 174.532 192.747C174.489 192.718 174.457 192.677 174.438 192.63C174.425 192.599 174.419 192.566 174.42 192.534C174.421 192.501 174.428 192.468 174.441 192.438C174.454 192.408 174.473 192.381 174.497 192.358C174.521 192.335 174.55 192.318 174.58 192.306C176.337 191.59 177.816 190.325 178.795 188.7C178.492 188.665 178.2 188.565 177.939 188.405C177.61 188.183 177.332 187.894 177.121 187.558C175.941 185.789 175.56 183.105 177.121 181.393C177.261 181.137 177.47 180.927 177.725 180.785C177.979 180.643 178.269 180.575 178.56 180.59C178.85 180.605 179.131 180.702 179.37 180.869C179.609 181.036 179.795 181.267 179.909 181.535C180.501 182.71 180.71 184.041 180.508 185.341C180.393 186.333 180.109 187.299 179.671 188.196H179.833C180.551 187.992 181.214 187.63 181.774 187.136C182.334 186.642 182.776 186.029 183.068 185.341C183.648 183.927 183.738 182.36 183.325 180.888C183.31 180.824 183.321 180.757 183.354 180.7C183.388 180.643 183.442 180.602 183.505 180.584C183.537 180.575 183.571 180.573 183.603 180.578C183.636 180.582 183.667 180.593 183.696 180.61C183.724 180.627 183.749 180.649 183.768 180.676C183.788 180.702 183.802 180.733 183.81 180.765C184.246 182.337 184.149 184.01 183.534 185.522C183.214 186.283 182.726 186.962 182.107 187.508C181.487 188.053 180.752 188.451 179.956 188.672C179.766 188.724 179.572 188.759 179.376 188.776C178.338 190.611 176.712 192.042 174.761 192.839L174.676 192.792ZM178.624 181.136C178.184 181.176 177.777 181.388 177.492 181.726C176.122 183.239 176.54 185.712 177.54 187.273C177.712 187.552 177.939 187.795 178.206 187.986C178.471 188.141 178.774 188.22 179.081 188.215C179.575 187.305 179.898 186.311 180.032 185.284C180.215 184.086 180.026 182.861 179.49 181.773C179.385 181.563 179.232 181.38 179.043 181.24C178.917 181.165 178.771 181.128 178.624 181.136Z" fill="white"/>
<path opacity="0.2" d="M193.287 153.476C193.254 153.469 193.223 153.456 193.195 153.437C193.168 153.417 193.144 153.393 193.127 153.364C193.109 153.336 193.097 153.304 193.092 153.271C193.087 153.238 193.088 153.204 193.097 153.171C193.466 151.31 193.229 149.379 192.421 147.662C192.226 147.902 191.979 148.094 191.698 148.223C191.33 148.372 190.934 148.441 190.537 148.423C188.415 148.423 185.989 147.262 185.428 145.026C185.289 144.644 185.285 144.226 185.414 143.841C185.544 143.456 185.8 143.125 186.141 142.905C186.443 142.783 186.77 142.74 187.093 142.781C188.402 142.942 189.631 143.5 190.613 144.379C191.369 145.024 192.012 145.789 192.516 146.644L192.573 146.482C192.801 145.769 192.866 145.014 192.762 144.273C192.658 143.532 192.389 142.823 191.974 142.2C191.08 140.937 189.786 140.012 188.301 139.574C188.27 139.565 188.241 139.549 188.215 139.528C188.19 139.506 188.17 139.48 188.154 139.451C188.139 139.422 188.13 139.39 188.128 139.357C188.125 139.324 188.129 139.292 188.139 139.26C188.163 139.198 188.21 139.146 188.27 139.116C188.33 139.086 188.399 139.08 188.463 139.099C190.01 139.609 191.346 140.611 192.269 141.953C192.734 142.643 193.034 143.432 193.147 144.256C193.259 145.081 193.18 145.921 192.916 146.711C192.851 146.897 192.771 147.079 192.678 147.253C193.637 149.13 193.932 151.276 193.515 153.342C193.495 153.385 193.462 153.42 193.421 153.444C193.381 153.467 193.334 153.479 193.287 153.476ZM186.75 143.266C186.587 143.265 186.425 143.297 186.275 143.361C185.789 143.59 185.685 144.313 185.837 144.903C186.341 146.872 188.587 147.928 190.461 147.928C190.786 147.934 191.108 147.879 191.413 147.767C191.692 147.634 191.929 147.426 192.098 147.167C191.612 146.257 190.968 145.442 190.195 144.76C189.299 143.945 188.171 143.43 186.969 143.285L186.75 143.266Z" fill="white"/>
<path opacity="0.2" d="M160.907 150.65H160.85C160.785 150.634 160.728 150.593 160.693 150.536C160.657 150.479 160.645 150.411 160.66 150.345C161.033 148.484 160.796 146.552 159.984 144.836C159.789 145.076 159.542 145.268 159.261 145.397C158.895 145.545 158.504 145.616 158.11 145.607C155.997 145.607 153.571 144.436 153 142.2C152.863 141.818 152.859 141.401 152.989 141.016C153.118 140.631 153.374 140.301 153.714 140.079C154.015 139.957 154.343 139.914 154.665 139.955C155.972 140.115 157.197 140.673 158.176 141.553C158.934 142.195 159.577 142.961 160.079 143.818C160.079 143.761 160.127 143.704 160.146 143.656C160.369 142.943 160.432 142.188 160.328 141.448C160.224 140.707 159.957 139.999 159.546 139.374C158.683 138.116 157.429 137.176 155.978 136.701C155.947 136.691 155.918 136.675 155.893 136.654C155.868 136.633 155.848 136.606 155.833 136.577C155.819 136.548 155.811 136.515 155.81 136.483C155.809 136.45 155.814 136.417 155.826 136.387C155.848 136.325 155.892 136.273 155.951 136.243C156.009 136.213 156.077 136.207 156.14 136.225C157.686 136.735 159.023 137.738 159.946 139.08C160.411 139.77 160.711 140.558 160.823 141.383C160.936 142.208 160.857 143.047 160.593 143.837C160.532 144.025 160.452 144.207 160.355 144.379C161.312 146.257 161.61 148.402 161.202 150.469C161.184 150.53 161.144 150.583 161.089 150.616C161.035 150.65 160.97 150.662 160.907 150.65ZM154.361 140.44C154.2 140.438 154.041 140.471 153.894 140.535C153.409 140.764 153.304 141.487 153.457 142.077C153.951 144.046 156.197 145.102 158.071 145.102C158.396 145.108 158.719 145.053 159.023 144.941C159.298 144.805 159.531 144.598 159.699 144.341C159.214 143.431 158.57 142.615 157.796 141.934C156.894 141.121 155.765 140.606 154.56 140.459L154.361 140.44Z" fill="white"/>
</g>
<path d="M168.607 97.8131C168.926 103.804 167.885 109.789 165.562 115.321C168.636 118.175 173.631 121.734 180.282 121.639C186.933 121.543 185.829 118.137 184.088 115.815C179.331 113.418 179.017 109.888 180.187 107.747L168.607 97.8131Z" fill="#CE7A63"/>
<path opacity="0.2" d="M180.148 107.756L174.877 104.464C172.45 104.845 171.28 107.937 174.296 110.268C176.351 111.857 179.596 112.485 180.005 112.057C179.689 111.379 179.538 110.637 179.563 109.89C179.587 109.142 179.788 108.411 180.148 107.756Z" fill="black"/>
<path d="M182.222 84.7491C188.997 83.3313 187.864 91.7426 186.104 96.1099C181.661 89.6207 182.222 84.7491 182.222 84.7491Z" fill="#545454"/>
<path d="M164.867 93.6931C166.18 101.153 166.589 105.016 171.384 107.556C183.345 113.874 186.056 109.526 187.008 101.847C187.855 94.9015 185.571 83.8642 177.874 81.7709C176.175 81.3176 174.389 81.2996 172.682 81.7186C170.974 82.1375 169.399 82.9799 168.103 84.168C166.807 85.356 165.831 86.8514 165.265 88.5162C164.7 90.1809 164.563 91.9614 164.867 93.6931Z" fill="#CE7A63"/>
<path d="M167.103 99.8398C173.602 101.172 166.647 94.3306 168.15 91.5523C169.653 88.7739 177.827 90.8386 175.486 86.3C181.833 87.908 187.713 88.4884 188.997 84.2067C190.9 77.9839 184.83 76.7945 181.252 78.5929C178.255 80.1058 178.283 80.6005 173.802 79.0972C169.32 77.5938 158.188 78.4692 161.033 83.5787C155.971 83.788 155.971 90.2392 160.157 92.0756C164.344 93.912 162.203 98.8312 167.103 99.8398Z" fill="#545454"/>
<path d="M165.743 96.3668C165.689 96.3653 165.637 96.347 165.595 96.3146C165.552 96.2822 165.521 96.2372 165.505 96.186C165.494 96.1548 165.49 96.1218 165.493 96.0891C165.496 96.0563 165.505 96.0243 165.52 95.9951C165.535 95.9659 165.555 95.9399 165.581 95.9188C165.606 95.8977 165.635 95.8818 165.666 95.8721L175.79 92.7321C175.853 92.7138 175.921 92.7204 175.98 92.7505C176.038 92.7806 176.083 92.8319 176.104 92.8939C176.115 92.9251 176.119 92.9581 176.116 92.9909C176.114 93.0236 176.104 93.0556 176.089 93.0848C176.074 93.1141 176.054 93.14 176.028 93.1611C176.003 93.1823 175.974 93.1981 175.943 93.2079L165.819 96.3478L165.743 96.3668Z" fill="white"/>
<path d="M162.184 83.9308C159.738 81.9612 156.475 81.4759 156.475 82.6368C156.475 83.7976 161.042 83.5882 161.479 84.3685C161.917 85.1487 162.184 83.9308 162.184 83.9308Z" fill="#545454"/>
<path d="M183.251 101.743C180.34 101.305 177.402 101.079 174.459 101.067C175.201 102.552 176.609 103.789 179.93 103.874C183.251 103.96 183.251 101.743 183.251 101.743Z" fill="white"/>
<path d="M162.614 99.4592C163.371 101.037 164.697 102.27 166.325 102.913C168.399 103.665 169.388 101.619 168.779 99.3831C168.218 97.3754 166.477 94.559 164.412 94.7874C162.347 95.0157 161.634 97.442 162.614 99.4592Z" fill="#CE7A63"/>
<path d="M177.531 93.8169C177.626 94.4544 178.044 94.9111 178.482 94.8445C178.92 94.7779 179.158 94.207 179.062 93.5695C178.967 92.932 178.549 92.4752 178.111 92.5418C177.673 92.6085 177.435 93.1793 177.531 93.8169Z" fill="#545454"/>
<path d="M184.43 93.6646C184.525 94.3021 184.934 94.7683 185.382 94.7017C185.829 94.6351 186.057 94.0642 185.962 93.4267C185.867 92.7892 185.448 92.323 185.011 92.3896C184.573 92.4562 184.325 93.0271 184.43 93.6646Z" fill="#545454"/>
<path d="M174.943 92.1993C174.879 92.1914 174.817 92.1686 174.763 92.1327C174.68 92.0766 174.623 91.9903 174.603 91.8924C174.584 91.7945 174.603 91.6929 174.658 91.6094C174.986 91.1 175.431 90.6763 175.955 90.3735C176.48 90.0706 177.069 89.8974 177.674 89.8681C177.775 89.8681 177.872 89.9082 177.943 89.9796C178.015 90.051 178.055 90.1478 178.055 90.2487C178.055 90.3497 178.015 90.4465 177.943 90.5178C177.872 90.5892 177.775 90.6293 177.674 90.6293C177.197 90.6601 176.734 90.8028 176.322 91.0458C175.911 91.2888 175.562 91.6253 175.305 92.028C175.268 92.089 175.214 92.1378 175.15 92.1682C175.086 92.1987 175.014 92.2095 174.943 92.1993Z" fill="#545454"/>
<path d="M186.353 90.0965C186.291 90.1085 186.228 90.1052 186.168 90.0869C186.109 90.0687 186.054 90.036 186.01 89.9918C185.69 89.6406 185.291 89.371 184.846 89.2054C184.401 89.0399 183.922 88.9833 183.451 89.0403C183.401 89.05 183.35 89.0497 183.301 89.0396C183.252 89.0295 183.205 89.0097 183.164 88.9814C183.122 88.9531 183.086 88.9168 183.059 88.8746C183.031 88.8325 183.013 88.7853 183.003 88.7358C182.987 88.6375 183.009 88.5366 183.066 88.4548C183.123 88.3729 183.21 88.3167 183.308 88.2981C183.902 88.2132 184.509 88.2745 185.074 88.4768C185.639 88.6791 186.147 89.0162 186.553 89.459C186.622 89.5301 186.661 89.6258 186.661 89.7254C186.661 89.825 186.622 89.9207 186.553 89.9918C186.499 90.0477 186.429 90.0844 186.353 90.0965Z" fill="#545454"/>
<path d="M185.201 98.1937C184.963 98.1871 184.729 98.1303 184.514 98.027C184.299 97.9237 184.108 97.7763 183.954 97.5943C183.049 96.3057 182.674 94.7179 182.908 93.1603C183.146 90.3629 184.497 88.1744 186 88.1744C186.239 88.1792 186.474 88.2352 186.689 88.3386C186.904 88.442 187.094 88.5905 187.247 88.7739C188.152 90.0591 188.527 91.6438 188.293 93.1983C188.055 95.9958 186.704 98.1937 185.201 98.1937ZM186 88.6787C184.801 88.6787 183.612 90.753 183.412 93.2079C183.208 94.6306 183.548 96.0781 184.364 97.2612C184.473 97.391 184.608 97.4969 184.761 97.5722C184.913 97.6475 185.079 97.6906 185.249 97.6989C186.447 97.6989 187.637 95.6247 187.837 93.1698C188.046 91.7499 187.706 90.3034 186.885 89.1259C186.78 88.9899 186.646 88.8786 186.493 88.7997C186.34 88.7208 186.172 88.6762 186 88.6692V88.6787Z" fill="white"/>
<path d="M182.459 93.6931C183.428 95.5674 184.655 97.2969 186.103 98.8312C185.698 99.1968 185.219 99.4709 184.699 99.6351C184.178 99.7993 183.629 99.8496 183.087 99.7827L182.459 93.6931Z" fill="#BA4D3C"/>
<path d="M159.853 132.657L157.36 135.255L154.819 137.938C153.145 139.727 151.508 141.544 149.928 143.342C149.148 144.246 148.387 145.16 147.664 146.073C146.941 146.987 146.218 147.871 145.571 148.766C144.924 149.66 144.353 150.545 143.858 151.354C143.471 151.985 143.131 152.643 142.84 153.323L143.011 152.029C142.925 151.849 142.916 152.381 143.011 152.981C143.164 153.764 143.387 154.531 143.677 155.274C144.358 157.089 145.146 158.862 146.037 160.583C146.941 162.42 147.94 164.256 148.967 166.121L152.069 171.697L152.126 171.802C152.532 172.567 152.663 173.448 152.5 174.299C152.337 175.15 151.888 175.92 151.228 176.481C150.568 177.042 149.736 177.362 148.87 177.386C148.004 177.411 147.156 177.139 146.465 176.616C144.658 175.169 142.933 173.622 141.298 171.982C139.662 170.355 138.092 168.652 136.541 166.825C134.975 164.922 133.556 162.902 132.297 160.783C131.59 159.562 130.977 158.29 130.461 156.977C129.768 155.242 129.4 153.394 129.376 151.525C129.37 151.241 129.392 150.958 129.443 150.678L129.538 150.231C129.925 148.421 130.512 146.659 131.289 144.979C131.939 143.574 132.669 142.208 133.477 140.887C134.944 138.446 136.565 136.101 138.33 133.865C140.014 131.667 141.793 129.603 143.611 127.595C144.562 126.596 145.437 125.597 146.398 124.636C147.359 123.675 148.301 122.733 149.367 121.781C150.806 120.483 152.69 119.79 154.627 119.847C156.564 119.903 158.405 120.704 159.766 122.084C161.127 123.463 161.904 125.314 161.934 127.252C161.964 129.19 161.246 131.064 159.929 132.486L159.853 132.657Z" fill="#CF7A64"/>
<path d="M147.188 169.537L155.619 169.661L152.65 179.328C152.65 179.328 145.038 178.291 144.924 174.152L147.188 169.537Z" fill="#CE7A63"/>
<path d="M161.756 175.893L160.138 179.1C159.83 179.721 159.31 180.213 158.671 180.485C158.033 180.757 157.318 180.792 156.656 180.584L152.631 179.328L155.6 169.661L160.357 171.944C160.712 172.107 161.03 172.34 161.294 172.628C161.557 172.917 161.76 173.255 161.891 173.623C162.021 173.991 162.076 174.382 162.053 174.772C162.03 175.162 161.929 175.543 161.756 175.893Z" fill="#CE7A63"/>
<path d="M158.083 116.31C153.906 117.319 148.93 118.974 144.458 123.922C140.128 129.04 136.358 134.606 133.211 140.526C137.968 148.766 145.657 149.717 147.721 149.175C154.962 144.303 159.358 141.82 161.394 135.369C163.43 128.918 161.204 121.306 158.083 116.31Z" fill="#545454"/>
<path d="M177.931 98.1937C177.692 98.1873 177.456 98.1306 177.24 98.0273C177.023 97.9241 176.831 97.7765 176.675 97.5943C175.769 96.3057 175.395 94.7179 175.629 93.1603C175.866 90.3629 177.218 88.1744 178.721 88.1744C178.961 88.1791 179.197 88.235 179.414 88.3384C179.63 88.4418 179.822 88.5902 179.977 88.7739C180.884 90.058 181.256 91.6448 181.014 93.1983C180.786 95.9958 179.387 98.1937 177.931 98.1937ZM178.721 88.6787C177.522 88.6787 176.342 90.753 176.133 93.2079C175.928 94.6306 176.268 96.0781 177.084 97.2612C177.193 97.3924 177.328 97.4991 177.48 97.5746C177.633 97.65 177.799 97.6924 177.969 97.6989C179.168 97.6989 180.348 95.6247 180.557 93.1698C180.759 91.7502 180.42 90.3066 179.606 89.1259C179.496 88.986 179.356 88.8725 179.196 88.7935C179.036 88.7144 178.861 88.672 178.683 88.6692L178.721 88.6787Z" fill="white"/>
<path d="M183.155 93.4362C183.106 93.4362 183.059 93.4218 183.018 93.3947C182.977 93.3676 182.946 93.3291 182.927 93.284C182.907 93.2329 182.877 93.1869 182.837 93.149C182.798 93.1112 182.75 93.0825 182.698 93.0651C182.044 92.9851 181.381 93.1045 180.795 93.4077C180.766 93.422 180.733 93.4301 180.7 93.4316C180.667 93.4331 180.634 93.4279 180.603 93.4163C180.572 93.4048 180.543 93.3871 180.519 93.3644C180.495 93.3417 180.476 93.3143 180.462 93.284C180.436 93.2232 180.434 93.1547 180.457 93.0927C180.481 93.0306 180.527 92.9799 180.586 92.951C181.281 92.5965 182.071 92.4731 182.841 92.5989C183.068 92.6887 183.252 92.8625 183.355 93.0842C183.378 93.145 183.377 93.2121 183.352 93.2721C183.327 93.3321 183.281 93.3806 183.222 93.4077C183.201 93.4208 183.179 93.4305 183.155 93.4362Z" fill="white"/>
<path d="M318.524 114.731C325.974 106.167 322.13 96.8141 313.766 91.6569C305.403 86.4998 295.631 90.2678 291.882 99.012C288.133 107.756 289.465 110.021 287.125 110.497C286.059 115.102 289.361 119.935 293.186 117.385C298.971 119.831 309.114 125.54 318.524 114.731Z" fill="#545454"/>
<path d="M308.284 121.667C304.193 121.667 300.577 119.888 297.932 118.584L296.752 118.004L297.133 117.205C297.504 117.376 297.903 117.576 298.322 117.785C303.365 120.268 310.977 124.017 319.103 115.568C322.1 112.447 323.489 108.908 323.137 105.444C322.756 101.733 320.378 98.1176 316.61 95.5295L317.114 94.7969C321.101 97.5372 323.613 101.381 324.022 105.358C324.402 109.164 322.928 112.875 319.75 116.177C315.772 120.326 311.852 121.667 308.284 121.667Z" fill="#545454"/>
<path d="M291.064 102.466C289.456 96.8331 291.292 85.3961 305.336 85.3866C319.38 85.3771 325.317 95.3107 319.466 103.551C302.52 107.385 291.064 102.466 291.064 102.466Z" fill="#545454"/>
<path d="M285.261 113.789C276.517 116.091 284.091 130.668 292.683 124.017C290.78 123.884 286.593 119.679 289.828 116.957C286.403 113.97 285.261 113.789 285.261 113.789Z" fill="#545454"/>
<path d="M285.373 126.805C284.564 126.805 283.765 126.616 283.042 126.253C281.798 125.537 280.788 124.478 280.131 123.202C279.475 121.926 279.2 120.488 279.34 119.06C279.453 117.865 279.945 116.737 280.744 115.842C281.544 114.946 282.609 114.33 283.784 114.084L284.003 114.95C282.995 115.136 282.076 115.649 281.388 116.409C280.701 117.169 280.282 118.134 280.197 119.155C280.069 120.402 280.303 121.66 280.872 122.777C281.441 123.894 282.32 124.824 283.403 125.454C285.259 126.406 287.409 125.882 289.445 124.017L290.045 124.683C288.814 125.959 287.143 126.717 285.373 126.805Z" fill="#545454"/>
<path d="M292.112 117.937C289.866 117.471 286.403 111.648 287.83 110.259C286.963 110.292 286.129 110.598 285.446 111.133C284.762 111.667 284.265 112.404 284.024 113.237C283.443 115.035 284.595 118.403 288.61 119.412C290.561 119.926 292.112 117.937 292.112 117.937Z" fill="#407BFF"/>
<path d="M292.538 141.953C292.471 144.132 292.309 146.282 292.176 148.442L291.624 154.912C291.434 157.082 291.168 159.242 290.901 161.43C290.759 162.515 290.597 163.619 290.397 164.76C290.2 165.987 289.917 167.199 289.55 168.386C288.09 172.711 286.153 176.859 283.775 180.755C281.54 184.552 279.058 188.198 276.343 191.669C276.036 192.091 275.579 192.38 275.066 192.478C274.553 192.575 274.022 192.474 273.581 192.194C273.14 191.914 272.822 191.477 272.692 190.971C272.562 190.465 272.629 189.929 272.88 189.471V189.423C274.783 185.674 276.686 181.811 278.36 178.005C279.188 176.102 280.016 174.199 280.72 172.23C281.431 170.366 282.022 168.459 282.49 166.521C282.694 165.63 282.84 164.728 282.928 163.818C283.013 162.867 283.08 161.782 283.137 160.736L283.48 154.37L283.813 147.967C283.955 145.826 284.05 143.685 284.231 141.553C284.293 140.454 284.789 139.425 285.61 138.692C286.431 137.958 287.509 137.581 288.608 137.643C289.707 137.705 290.737 138.2 291.47 139.021C292.203 139.842 292.581 140.921 292.519 142.02L292.538 141.953Z" fill="#FFB573"/>
<path d="M291.9 180.698C291.9 180.698 291.9 230.518 294.926 257.503C295.24 282.832 301.025 340.074 301.025 340.074H307.41C308.494 311.672 316.401 285.163 311.14 260.148C323.433 210.965 317.734 180.765 317.734 180.765L291.9 180.698Z" fill="#FFB573"/>
<path d="M298.865 180.727C298.865 180.727 303.623 241.698 313.214 263.507C323.243 286.438 341.045 331.358 342.805 338.97L348.143 337.552C348.143 337.552 344.613 288.246 328.314 260.376C333.357 191.659 320.655 180.708 320.655 180.708L298.865 180.727Z" fill="#FFB573"/>
<path d="M289.864 129.555C284.507 134.084 282.785 141.458 282.851 146.454C286.058 151.715 296.077 153.342 296.077 153.342C296.077 153.342 297.666 143.066 296.905 138.223C296.144 133.38 292.956 126.938 289.864 129.555Z" fill="#545454"/>
<path d="M286.022 139.013C285.719 136.274 286.478 133.524 288.142 131.327C289.805 129.131 292.248 127.656 294.966 127.205C296.517 126.929 298.153 126.672 299.723 126.472C304.618 125.948 309.543 125.773 314.462 125.949C315.87 125.949 317.25 126.025 318.554 126.111C319.704 126.186 320.826 126.498 321.851 127.025C322.876 127.553 323.781 128.286 324.511 129.178C325.241 130.07 325.78 131.103 326.094 132.212C326.408 133.321 326.49 134.483 326.337 135.626C323.225 156.273 321.379 171.202 323.416 180.251C323.416 180.251 329.848 188.814 332.769 208.529C335.319 225.723 334.672 254.715 337.479 270.291C327.45 277.456 295.613 277.018 290.922 272.831C292.245 241.337 285.803 200.07 290.703 181.012C288.743 170.45 289.809 162.382 288.705 155.978C281.331 151.04 286.85 146.463 286.022 139.013Z" fill="#545454"/>
<path d="M304.566 184.038C298.923 184.038 293.69 183.495 291.387 182.477C290.436 182.059 289.989 181.564 290.046 180.993C290.048 180.957 290.058 180.922 290.074 180.89C290.09 180.858 290.113 180.829 290.141 180.806C290.168 180.783 290.2 180.766 290.234 180.755C290.269 180.745 290.305 180.742 290.341 180.746C290.411 180.755 290.476 180.791 290.522 180.845C290.568 180.9 290.591 180.969 290.588 181.041C290.588 181.45 291.207 181.811 291.606 181.992C297.154 184.437 319.913 184.161 323.567 180.089C323.619 180.037 323.689 180.008 323.762 180.008C323.835 180.008 323.905 180.037 323.957 180.089C323.984 180.113 324.005 180.143 324.02 180.175C324.034 180.208 324.042 180.244 324.042 180.279C324.042 180.315 324.034 180.351 324.02 180.383C324.005 180.416 323.984 180.446 323.957 180.47C321.759 182.896 312.73 184.038 304.566 184.038Z" fill="white"/>
<path d="M304.29 182.097C298.648 182.097 293.415 181.554 291.112 180.546C290.161 180.127 289.713 179.594 289.77 179.052C289.78 178.98 289.817 178.914 289.873 178.868C289.93 178.822 290.002 178.799 290.075 178.805C290.147 178.814 290.212 178.851 290.256 178.908C290.301 178.965 290.321 179.037 290.313 179.109C290.313 179.518 290.931 179.87 291.331 180.061C296.888 182.506 319.638 182.23 323.301 178.158C323.353 178.109 323.421 178.081 323.492 178.081C323.562 178.081 323.631 178.109 323.682 178.158C323.731 178.209 323.758 178.277 323.758 178.348C323.758 178.419 323.731 178.487 323.682 178.538C321.484 180.955 312.464 182.097 304.29 182.097Z" fill="white"/>
<path opacity="0.2" d="M309.237 246.142C310.103 233.478 309.237 214.514 301.492 203.886C303.528 217.359 309.237 246.142 309.237 246.142Z" fill="black"/>
<path d="M312.036 109.488C311.38 114.245 310.951 122.933 314.453 125.968C307.055 129.269 300.853 134.767 296.688 141.715C292.045 131.125 299.714 126.491 299.714 126.491C304.928 125.045 304.567 121.144 303.435 117.5L312.036 109.488Z" fill="#FFB573"/>
<path opacity="0.2" d="M308.524 112.761L303.434 117.519C303.708 118.363 303.912 119.229 304.043 120.107C306.041 119.745 308.695 117.442 308.8 115.349C308.869 114.477 308.775 113.599 308.524 112.761Z" fill="black"/>
<path d="M313.994 98.9739C314.393 106.833 314.726 110.164 311.253 114.531C306.03 121.106 296.334 119.669 293.603 112.038C291.148 105.159 290.91 93.4552 298.17 89.6493C305.43 85.8433 313.585 91.105 313.994 98.9739Z" fill="#FFB573"/>
<path d="M306.61 92.7607C306.02 101.048 314.983 108.175 317.79 105.025C320.597 101.876 313.679 87.1088 306.61 92.7607Z" fill="#545454"/>
<path d="M294.137 92.0946C304.261 99.7922 316.069 99.7542 315.317 94.1403C314.565 88.5265 300.141 83.5502 294.137 92.0946Z" fill="#545454"/>
<path d="M301.862 102.123C301.938 102.761 301.653 103.313 301.234 103.351C300.816 103.389 300.407 102.904 300.34 102.266C300.273 101.629 300.549 101.086 300.977 101.048C301.406 101.01 301.796 101.514 301.862 102.123Z" fill="#545454"/>
<path d="M293.946 102.961C294.022 103.598 293.737 104.15 293.309 104.188C292.881 104.226 292.491 103.741 292.424 103.103C292.357 102.466 292.633 101.924 293.052 101.886C293.471 101.847 293.88 102.323 293.946 102.961Z" fill="#545454"/>
<path d="M293.243 101.895L291.645 101.6C291.645 101.6 292.577 102.723 293.243 101.895Z" fill="#545454"/>
<path d="M296.449 103.265C296.038 104.769 295.416 106.207 294.604 107.537C294.957 107.739 295.35 107.863 295.755 107.901C296.16 107.939 296.569 107.889 296.954 107.756L296.449 103.265Z" fill="#ED893E"/>
<path d="M316.544 106.101C316.292 106.769 315.898 107.375 315.389 107.876C314.879 108.377 314.267 108.762 313.594 109.003C311.853 109.564 310.854 107.69 311.235 105.73C311.568 103.96 312.871 101.533 314.67 101.838C316.468 102.142 317.248 104.369 316.544 106.101Z" fill="#FFB573"/>
<path d="M303.907 98.9454C303.802 98.9293 303.707 98.8751 303.64 98.7931C303.356 98.4075 302.987 98.0926 302.561 97.8731C302.135 97.6536 301.664 97.5354 301.185 97.5277C301.085 97.5357 300.985 97.5046 300.907 97.4407C300.829 97.3769 300.779 97.2853 300.767 97.1851C300.763 97.1356 300.769 97.0858 300.785 97.0387C300.8 96.9916 300.825 96.9481 300.858 96.9108C300.891 96.8736 300.931 96.8433 300.976 96.8217C301.021 96.8002 301.069 96.7879 301.119 96.7855C301.726 96.7779 302.326 96.9155 302.869 97.187C303.412 97.4585 303.882 97.8558 304.24 98.3459C304.271 98.384 304.295 98.4282 304.308 98.4757C304.322 98.5232 304.326 98.573 304.32 98.622C304.314 98.6711 304.297 98.7183 304.272 98.7609C304.247 98.8034 304.213 98.8403 304.173 98.8693C304.097 98.9272 304.002 98.9544 303.907 98.9454Z" fill="#545454"/>
<path d="M291.588 100.23C291.496 100.263 291.395 100.263 291.303 100.23C291.211 100.19 291.138 100.116 291.099 100.024C291.06 99.9322 291.058 99.8287 291.093 99.7352C291.314 99.1817 291.665 98.6891 292.115 98.2985C292.565 97.9079 293.102 97.6306 293.681 97.4896C293.782 97.473 293.885 97.4965 293.969 97.5552C294.053 97.614 294.11 97.7031 294.129 97.8036C294.145 97.8994 294.124 97.9979 294.069 98.078C294.013 98.1581 293.929 98.2133 293.834 98.2318C293.376 98.3479 292.952 98.5716 292.598 98.8844C292.244 99.1972 291.969 99.59 291.797 100.03C291.779 100.076 291.75 100.118 291.714 100.153C291.678 100.187 291.635 100.213 291.588 100.23Z" fill="#545454"/>
<path d="M301.169 101.067L299.57 100.763C299.57 100.763 300.493 101.886 301.169 101.067Z" fill="#545454"/>
<path d="M313.044 168.31L306.755 165.103L305.299 173.048C305.299 173.048 310.38 174.266 313.957 172.772L314.519 171.821C314.662 170.089 314.452 169.366 313.044 168.31Z" fill="#FFB573"/>
<path d="M301.748 167.244L301.596 170.736C301.573 171.24 301.742 171.734 302.068 172.119C302.395 172.504 302.855 172.751 303.356 172.81L305.316 173.048L306.772 165.103L303.603 165.322C303.112 165.359 302.652 165.575 302.31 165.929C301.968 166.284 301.768 166.752 301.748 167.244Z" fill="#FFB573"/>
<path d="M326.364 133.38C327.905 137.728 329.294 142.058 330.541 146.492C331.888 150.98 332.962 155.546 333.757 160.165C333.965 161.462 334.086 162.772 334.119 164.085C334.181 165.877 333.757 167.653 332.891 169.223C331.951 170.817 330.552 172.091 328.876 172.877C327.512 173.508 326.052 173.903 324.556 174.047C322.01 174.265 319.445 174.108 316.944 173.581C315.758 173.367 314.586 173.084 313.433 172.734C312.271 172.41 311.127 172.022 310.008 171.573C309.541 171.388 309.158 171.038 308.93 170.591C308.702 170.143 308.645 169.628 308.77 169.141C308.895 168.654 309.193 168.23 309.608 167.947C310.023 167.665 310.527 167.543 311.026 167.605H311.14C312.158 167.729 313.271 167.862 314.337 167.948C315.403 168.034 316.497 168.072 317.553 168.1C319.549 168.178 321.548 168.002 323.5 167.577C324.252 167.41 324.973 167.121 325.631 166.721C326.009 166.511 326.299 166.174 326.449 165.769C326.594 165.305 326.633 164.814 326.564 164.332C326.475 163.372 326.325 162.419 326.116 161.478C325.698 159.442 325.165 157.31 324.527 155.198C323.89 153.086 323.3 150.945 322.624 148.813C321.283 144.57 319.894 140.25 318.514 136.054C318.158 135.012 318.231 133.871 318.716 132.882C319.202 131.894 320.06 131.138 321.102 130.782C322.144 130.427 323.285 130.499 324.274 130.985C325.262 131.47 326.018 132.328 326.373 133.371L326.364 133.38Z" fill="#FFB573"/>
<path d="M273.528 187.996L266.496 187.435L268.18 195.332C268.18 195.332 272.785 194.599 275.602 192.211C275.917 191.935 276.121 191.552 276.173 191.136C276.221 190.842 276.191 190.54 276.087 190.261C275.936 189.67 275.611 189.139 275.155 188.735C274.699 188.332 274.132 188.074 273.528 187.996Z" fill="#FFB573"/>
<path d="M262.661 191.326L263.86 194.609C264.03 195.085 264.374 195.478 264.822 195.71C265.271 195.941 265.791 195.993 266.277 195.855L268.18 195.332L266.496 187.435L263.641 188.843C263.204 189.066 262.862 189.442 262.682 189.899C262.501 190.356 262.494 190.864 262.661 191.326Z" fill="#FFB573"/>
<path d="M321.607 126.929C326.307 128.908 328.543 132.105 332.426 140.992C331.474 147.082 321.188 152.258 321.188 152.258C321.188 152.258 317.792 144.551 316.669 139.774C315.546 134.998 316.85 124.921 321.607 126.929Z" fill="#545454"/>
<path d="M307.904 340.112C307.862 339.998 307.783 339.901 307.68 339.837C307.576 339.773 307.454 339.746 307.333 339.76L301.396 339.665C300.773 339.622 300.15 339.754 299.598 340.045C296.881 341.743 293.83 342.833 290.653 343.242C289.397 343.433 289.968 345.564 292.937 345.592C297.856 345.65 298.741 345.278 302.937 345.326C306.515 345.326 304.84 345.526 307.695 345.592C308.38 345.592 308.932 345.164 308.846 344.689L307.904 340.112Z" fill="#545454"/>
<path d="M349.2 336.534C349.129 336.435 349.027 336.362 348.91 336.326C348.794 336.29 348.668 336.293 348.553 336.334L342.778 337.752C342.169 337.865 341.604 338.149 341.151 338.57C339.752 340.188 337.82 342.671 333.824 343.271C332.559 343.461 333.13 345.592 336.098 345.621C341.017 345.678 341.636 343.851 345.708 342.833C349.181 341.967 347.611 342.557 350.342 341.882C351.008 341.729 351.436 341.158 351.227 340.721L349.2 336.534Z" fill="#545454"/>
<path d="M299.465 137.595C301.653 136.777 307.809 136.292 310.588 138.88C315.136 136.539 317.619 129.85 317.058 125.759C315.99 124.954 314.673 124.55 313.338 124.617C313.338 124.617 303.204 131.011 299.465 137.595Z" fill="#FAFAFA"/>
<path d="M295.421 137.671C295.421 137.671 294.165 132.324 300.179 126.339C299.455 125.873 296.934 126.767 296.934 126.767C296.934 126.767 289.627 130.906 290.797 139.413C292.058 138.261 293.713 137.637 295.421 137.671Z" fill="#FAFAFA"/>
<path d="M303.863 108.175C304.169 107.885 304.446 107.566 304.69 107.223C304.708 107.201 304.72 107.175 304.727 107.147C304.733 107.12 304.734 107.091 304.729 107.063C304.723 107.035 304.712 107.009 304.695 106.985C304.679 106.962 304.658 106.943 304.633 106.928C304.59 106.89 304.534 106.869 304.476 106.869C304.419 106.869 304.363 106.89 304.319 106.928C303.761 107.685 303.039 108.306 302.206 108.744C301.374 109.182 300.454 109.427 299.514 109.459C299.482 109.453 299.449 109.453 299.418 109.461C299.386 109.468 299.356 109.483 299.331 109.503C299.306 109.524 299.285 109.55 299.271 109.579C299.257 109.609 299.25 109.641 299.25 109.674C299.25 109.706 299.257 109.738 299.271 109.768C299.285 109.797 299.306 109.823 299.331 109.844C299.356 109.864 299.386 109.879 299.418 109.886C299.449 109.894 299.482 109.894 299.514 109.888C301.123 109.861 302.668 109.252 303.863 108.175Z" fill="#545454"/>
<path d="M220.015 347.229H218.34L211.109 207.996C211.004 205.97 210.125 204.062 208.654 202.665C207.182 201.268 205.231 200.489 203.202 200.489H177.93C175.9 200.489 173.947 201.267 172.474 202.664C171.002 204.061 170.121 205.969 170.013 207.996L162.782 347.229H161.107L168.415 207.911C168.541 205.468 169.597 203.166 171.366 201.476C173.135 199.787 175.484 198.838 177.93 198.824H203.173C205.629 198.823 207.992 199.766 209.773 201.457C211.554 203.148 212.618 205.458 212.745 207.911L220.015 347.229Z" fill="#407BFF"/>
<path opacity="0.7" d="M220.015 347.229H218.34L211.109 207.996C211.004 205.97 210.125 204.062 208.654 202.665C207.182 201.268 205.231 200.489 203.202 200.489H177.93C175.9 200.489 173.947 201.267 172.474 202.664C171.002 204.061 170.121 205.969 170.013 207.996L162.782 347.229H161.107L168.415 207.911C168.541 205.468 169.597 203.166 171.366 201.476C173.135 199.787 175.484 198.838 177.93 198.824H203.173C205.629 198.823 207.992 199.766 209.773 201.457C211.554 203.148 212.618 205.458 212.745 207.911L220.015 347.229Z" fill="white"/>
<path d="M314.164 347.229H312.489L305.258 207.996C305.153 205.97 304.274 204.062 302.803 202.665C301.331 201.268 299.38 200.489 297.351 200.489H272.127C270.097 200.489 268.144 201.267 266.671 202.664C265.198 204.061 264.317 205.969 264.21 207.996L256.979 347.229H255.285L262.536 207.911C262.663 205.455 263.729 203.141 265.515 201.45C267.3 199.759 269.667 198.818 272.127 198.824H297.37C299.826 198.823 302.189 199.766 303.97 201.457C305.751 203.148 306.815 205.458 306.942 207.911L314.164 347.229Z" fill="#407BFF"/>
<path opacity="0.7" d="M314.164 347.229H312.489L305.258 207.996C305.153 205.97 304.274 204.062 302.803 202.665C301.331 201.268 299.38 200.489 297.351 200.489H272.127C270.097 200.489 268.144 201.267 266.671 202.664C265.198 204.061 264.317 205.969 264.21 207.996L256.979 347.229H255.285L262.536 207.911C262.663 205.455 263.729 203.141 265.515 201.45C267.3 199.759 269.667 198.818 272.127 198.824H297.37C299.826 198.823 302.189 199.766 303.97 201.457C305.751 203.148 306.815 205.458 306.942 207.911L314.164 347.229Z" fill="white"/>
<path d="M310.93 193.524H163.838V201.612H310.93V193.524Z" fill="#407BFF"/>
<path opacity="0.3" d="M310.929 193.524H260.043V201.612H310.929V193.524Z" fill="black"/>
<path d="M271.823 191.574H202.602C202.35 191.574 202.108 191.674 201.929 191.852C201.751 192.031 201.65 192.273 201.65 192.525C201.65 192.777 201.751 193.019 201.929 193.198C202.108 193.376 202.35 193.477 202.602 193.477H271.823C272.076 193.477 272.318 193.376 272.496 193.198C272.675 193.019 272.775 192.777 272.775 192.525C272.775 192.273 272.675 192.031 272.496 191.852C272.318 191.674 272.076 191.574 271.823 191.574Z" fill="#407BFF"/>
<path opacity="0.1" d="M271.823 191.574H202.602C202.35 191.574 202.108 191.674 201.929 191.852C201.751 192.031 201.65 192.273 201.65 192.525C201.65 192.777 201.751 193.019 201.929 193.198C202.108 193.376 202.35 193.477 202.602 193.477H271.823C272.076 193.477 272.318 193.376 272.496 193.198C272.675 193.019 272.775 192.777 272.775 192.525C272.775 192.273 272.675 192.031 272.496 191.852C272.318 191.674 272.076 191.574 271.823 191.574Z" fill="white"/>
<path d="M254.421 193.524H198.283C197.756 193.497 197.251 193.306 196.84 192.976C196.428 192.647 196.131 192.196 195.99 191.688L188.092 159.527C188.021 159.312 188.003 159.083 188.04 158.86C188.077 158.636 188.168 158.425 188.305 158.244C188.441 158.064 188.62 157.919 188.825 157.823C189.03 157.726 189.255 157.681 189.481 157.691H245.62C246.148 157.717 246.654 157.908 247.067 158.238C247.48 158.567 247.779 159.018 247.922 159.527L255.82 191.688C255.891 191.904 255.909 192.134 255.871 192.358C255.834 192.582 255.742 192.794 255.605 192.975C255.467 193.156 255.287 193.3 255.081 193.396C254.875 193.492 254.648 193.536 254.421 193.524Z" fill="#407BFF"/>
<path opacity="0.3" d="M254.421 193.524H198.283C197.756 193.497 197.251 193.306 196.84 192.976C196.428 192.647 196.131 192.196 195.99 191.688L188.092 159.527C188.021 159.312 188.003 159.083 188.04 158.86C188.077 158.636 188.168 158.425 188.305 158.244C188.441 158.064 188.62 157.919 188.825 157.823C189.03 157.726 189.255 157.681 189.481 157.691H245.62C246.148 157.717 246.654 157.908 247.067 158.238C247.48 158.567 247.779 159.018 247.922 159.527L255.82 191.688C255.891 191.904 255.909 192.134 255.871 192.358C255.834 192.582 255.742 192.794 255.605 192.975C255.467 193.156 255.287 193.3 255.081 193.396C254.875 193.492 254.648 193.536 254.421 193.524Z" fill="white"/>
<path d="M237.875 183.743H237.79C237.755 183.731 237.723 183.713 237.696 183.688C237.669 183.664 237.647 183.635 237.631 183.602C237.615 183.57 237.605 183.534 237.603 183.498C237.601 183.461 237.606 183.425 237.618 183.391C238.596 180.729 238.549 177.799 237.485 175.17C237.409 175.303 237.323 175.427 237.238 175.55C236.523 176.419 235.5 176.978 234.383 177.111C233.44 177.28 232.468 177.185 231.576 176.835C231.122 176.656 230.707 176.39 230.356 176.05C230.004 175.71 229.724 175.304 229.531 174.856C229.337 174.39 229.268 173.882 229.329 173.382C229.391 172.882 229.582 172.406 229.883 172.001C231.243 170.251 234.031 170.66 235.515 171.621C236.311 172.177 236.963 172.914 237.418 173.771C237.451 173.621 237.474 173.468 237.485 173.314C237.555 172.727 237.49 172.131 237.295 171.572C237.101 171.013 236.782 170.506 236.362 170.089C235.634 169.418 234.777 168.903 233.842 168.576C232.908 168.249 231.917 168.116 230.929 168.186C230.232 168.225 229.544 168.359 228.883 168.585C228.85 168.597 228.814 168.602 228.778 168.6C228.743 168.598 228.708 168.588 228.676 168.572C228.644 168.556 228.616 168.534 228.592 168.507C228.569 168.48 228.552 168.448 228.541 168.414C228.519 168.347 228.524 168.274 228.554 168.211C228.584 168.147 228.637 168.097 228.703 168.072C229.413 167.831 230.152 167.687 230.901 167.643C231.966 167.568 233.035 167.712 234.041 168.067C235.048 168.423 235.971 168.981 236.752 169.708C237.224 170.186 237.583 170.762 237.804 171.396C238.024 172.03 238.101 172.704 238.027 173.371C237.993 173.75 237.916 174.123 237.799 174.485C239.099 177.335 239.222 180.583 238.142 183.524C238.13 183.586 238.097 183.642 238.049 183.682C238 183.722 237.938 183.744 237.875 183.743ZM232.623 171.373C232.187 171.343 231.751 171.413 231.347 171.578C230.943 171.743 230.582 171.999 230.292 172.325C230.051 172.651 229.9 173.033 229.851 173.435C229.803 173.837 229.86 174.244 230.016 174.618C230.18 175.001 230.419 175.348 230.718 175.638C231.016 175.929 231.37 176.158 231.757 176.312C232.56 176.621 233.432 176.703 234.278 176.549C235.264 176.442 236.169 175.954 236.8 175.189C236.96 174.981 237.088 174.75 237.181 174.504C236.74 173.533 236.054 172.694 235.192 172.068C234.418 171.598 233.529 171.351 232.623 171.354V171.373Z" fill="white"/>
<path d="M243.43 180.07H230.994L232.298 193.524H242.127L243.43 180.07Z" fill="#407BFF"/>
<path d="M237.018 169.718C236.635 169.72 236.254 169.669 235.886 169.566C235.839 169.551 235.798 169.523 235.766 169.486C235.734 169.449 235.713 169.404 235.705 169.356C235.624 168.677 235.712 167.988 235.961 167.35C236.21 166.713 236.612 166.147 237.132 165.702C238.54 164.712 240.178 164.099 241.89 163.923C241.934 163.919 241.979 163.925 242.02 163.941C242.062 163.958 242.099 163.984 242.128 164.018C242.156 164.05 242.175 164.089 242.185 164.13C242.195 164.172 242.195 164.215 242.185 164.256C241.746 165.936 240.884 167.476 239.682 168.728C238.941 169.365 237.996 169.716 237.018 169.718ZM236.219 169.09C236.767 169.214 237.336 169.208 237.882 169.073C238.427 168.937 238.933 168.676 239.359 168.31C240.402 167.244 241.164 165.936 241.576 164.504C240.102 164.687 238.696 165.233 237.484 166.093C237.059 166.458 236.723 166.917 236.504 167.434C236.285 167.95 236.187 168.51 236.219 169.071V169.09Z" fill="white"/>
<path d="M227.408 176.521C226.464 176.474 225.537 176.248 224.678 175.855C224.653 175.841 224.632 175.821 224.616 175.798C224.599 175.776 224.588 175.749 224.582 175.722C224.578 175.694 224.58 175.665 224.59 175.638C224.6 175.611 224.617 175.588 224.639 175.569C225.436 174.792 226.419 174.231 227.494 173.942C227.931 173.872 228.379 173.91 228.799 174.053C229.219 174.196 229.597 174.439 229.901 174.761C229.915 174.789 229.923 174.82 229.923 174.851C229.923 174.882 229.915 174.913 229.901 174.941C229.717 175.344 229.437 175.695 229.085 175.964C228.733 176.233 228.321 176.411 227.884 176.483C227.727 176.507 227.568 176.52 227.408 176.521ZM225.058 175.646C225.955 176.042 226.935 176.212 227.913 176.14C228.271 176.079 228.611 175.937 228.906 175.724C229.201 175.511 229.444 175.234 229.616 174.913C229.352 174.661 229.034 174.473 228.685 174.364C228.337 174.255 227.969 174.228 227.608 174.285C226.671 174.523 225.808 174.99 225.096 175.646H225.058Z" fill="white"/>
<path d="M98.6523 324.165C98.5848 324.165 98.5198 324.139 98.4703 324.094C98.4209 324.048 98.3907 323.985 98.3859 323.917C96.1689 300.701 100.213 238.739 104.932 223.458C104.956 223.391 105.005 223.334 105.068 223.301C105.132 223.267 105.205 223.259 105.275 223.278C105.344 223.299 105.401 223.348 105.435 223.412C105.469 223.476 105.476 223.551 105.456 223.62C100.698 238.844 96.7208 300.691 98.9282 323.87C98.9322 323.906 98.9288 323.942 98.9184 323.976C98.908 324.011 98.8907 324.043 98.8675 324.07C98.8444 324.098 98.816 324.12 98.7839 324.137C98.7518 324.153 98.7167 324.162 98.6808 324.165H98.6523Z" fill="#545454"/>
<path d="M109.109 304.545H87.2246L90.0791 347.229H106.255L109.109 304.545Z" fill="#407BFF"/>
<path d="M98.9016 239.148C99.9823 240.324 100.762 241.744 101.173 243.287C101.584 244.83 101.614 246.45 101.261 248.007C99.6819 248.248 98.0676 248.103 96.5565 247.584C95.0453 247.066 93.6822 246.189 92.5837 245.029C88.8728 241.032 87.8262 233.544 87.8262 233.544C87.8262 233.544 95.1527 235.152 98.9016 239.148Z" fill="#545454"/>
<path d="M111.848 260.1C110.076 261.16 108.074 261.774 106.012 261.89C103.95 262.006 101.892 261.621 100.012 260.767C100.12 258.704 100.727 256.698 101.781 254.921C102.835 253.145 104.305 251.65 106.063 250.566C112.096 246.903 121.858 247.503 121.858 247.503C121.858 247.503 117.881 256.437 111.848 260.1Z" fill="#545454"/>
<path d="M110.689 222.412C110.687 223.132 110.472 223.836 110.07 224.434C109.668 225.032 109.099 225.497 108.433 225.772C107.767 226.046 107.034 226.117 106.328 225.975C105.622 225.833 104.973 225.486 104.464 224.976C103.956 224.466 103.61 223.816 103.47 223.11C103.33 222.403 103.403 221.671 103.679 221.005C103.955 220.34 104.422 219.771 105.021 219.371C105.62 218.971 106.324 218.758 107.045 218.758C107.524 218.758 107.999 218.852 108.441 219.036C108.884 219.22 109.286 219.489 109.625 219.829C109.963 220.168 110.232 220.571 110.414 221.014C110.597 221.457 110.69 221.932 110.689 222.412Z" fill="#407BFF"/>
<path d="M84.2567 281.414C86.0525 283.34 88.2913 284.798 90.7785 285.661C93.2658 286.525 95.9263 286.769 98.5291 286.371C99.125 283.815 99.0899 281.152 98.4268 278.613C97.7637 276.073 96.4926 273.733 94.7231 271.794C88.6335 265.21 76.502 262.517 76.502 262.517C76.502 262.517 78.1671 274.83 84.2567 281.414Z" fill="#545454"/>
</svg>
